<?xml version="1.0" encoding="UTF-8"?>
<svg xmlns="http://www.w3.org/2000/svg" viewBox="0 0 99.81 99.81">
  <defs>
    <style>
      .cls-1 {
        fill: #4DA7F7;
      }

      .cls-1, .cls-2, .cls-3, .cls-4, .cls-5, .cls-6, .cls-7, .cls-8, .cls-9, .cls-10, .cls-11, .cls-12, .cls-13, .cls-14, .cls-15, .cls-16, .cls-17, .cls-18, .cls-19, .cls-20, .cls-21, .cls-22, .cls-23, .cls-24, .cls-25, .cls-26, .cls-27, .cls-28, .cls-29, .cls-30, .cls-31, .cls-32, .cls-33 {
        stroke-width: 0px;
      }

      .cls-2 {
        fill: #4DA7F7;
      }

      .cls-3 {
        fill: #4DA7F7;
      }

      .cls-4 {
        fill: #4DA7F7;
      }

      .cls-5 {
        fill: #4DA7F7;
      }

      .cls-34 {
        isolation: isolate;
      }

      .cls-6 {
        fill: #4DA7F7;
      }

      .cls-7 {
        fill: #4DA7F7;
      }

      .cls-8 {
        fill: #4DA7F7;
      }

      .cls-9 {
        fill: #4DA7F7;
      }

      .cls-10 {
        fill: #4DA7F7;
      }

      .cls-11 {
        fill: #4DA7F7;
      }

      .cls-12 {
        fill: #4DA7F7;
      }

      .cls-13 {
        fill: #4DA7F7;
      }

      .cls-14 {
        fill: #4DA7F7;
      }

      .cls-15 {
        fill: #4DA7F7;
      }

      .cls-16 {
        fill: #4DA7F7;
      }

      .cls-17 {
        fill: #4DA7F7;
      }

      .cls-18 {
        fill: #4DA7F7;
      }

      .cls-19 {
        fill: #4DA7F7;
      }

      .cls-20 {
        fill: #4DA7F7;
      }

      .cls-21 {
        fill: #4DA7F7;
      }

      .cls-22 {
        fill: #4DA7F7;
      }

      .cls-23 {
        fill: #222222;
      }

      .cls-24 {
        fill: #4DA7F7;
      }

      .cls-25 {
        fill: #4DA7F7;
      }

      .cls-26 {
        fill: #4DA7F7;
      }

      .cls-27 {
        fill: #4DA7F7;
      }

      .cls-28 {
        fill: #4DA7F7;
      }

      .cls-29 {
        fill: #4DA7F7;
      }

      .cls-30 {
        fill: #4DA7F7;
      }

      .cls-31 {
        fill: #4DA7F7;
      }

      .cls-32 {
        fill: #4DA7F7;
      }

      .cls-35 {
        mix-blend-mode: multiply;
      }

      .cls-33 {
        fill: #4DA7F7;
      }
    </style>
  </defs>
  <g class="cls-34">
    <g id="Layer_1" data-name="Layer 1">
      <g>
        <path class="cls-23" d="m95.97,48.18c0,26.5-21.48,47.99-47.99,47.99S0,74.69,0,48.18,21.48.2,47.99.2s47.99,21.48,47.99,47.99Z"/>
        <g class="cls-35">
          <path class="cls-18" d="m95.97,47.99c0,26.5-21.48,47.99-47.99,47.99S0,74.49,0,47.99,21.48,0,47.99,0s47.99,21.48,47.99,47.99Z"/>
          <path class="cls-1" d="m96.1,48.11c0,26.5-21.48,47.99-47.99,47.99S.12,74.61.12,48.11,21.61.12,48.11.12s47.99,21.48,47.99,47.99Z"/>
          <path class="cls-24" d="m96.22,48.23c0,26.5-21.48,47.99-47.99,47.99S.25,74.74.25,48.23,21.73.25,48.23.25s47.99,21.48,47.99,47.99Z"/>
          <path class="cls-28" d="m96.35,48.36c0,26.5-21.48,47.99-47.99,47.99S.37,74.86.37,48.36,21.86.37,48.36.37s47.99,21.48,47.99,47.99Z"/>
          <path class="cls-25" d="m96.47,48.48c0,26.5-21.48,47.99-47.99,47.99S.5,74.98.5,48.48,21.98.5,48.48.5s47.99,21.48,47.99,47.99Z"/>
          <path class="cls-30" d="m96.59,48.61c0,26.5-21.48,47.99-47.99,47.99S.62,75.11.62,48.61,22.1.62,48.61.62s47.99,21.48,47.99,47.99Z"/>
          <path class="cls-2" d="m96.72,48.73c0,26.5-21.48,47.99-47.99,47.99S.74,75.23.74,48.73,22.23.74,48.73.74s47.99,21.48,47.99,47.99Z"/>
          <path class="cls-22" d="m96.84,48.85c0,26.5-21.48,47.99-47.99,47.99S.87,75.36.87,48.85,22.35.87,48.85.87s47.99,21.48,47.99,47.99Z"/>
          <path class="cls-11" d="m96.96,48.98c0,26.5-21.48,47.99-47.99,47.99S.99,75.48.99,48.98,22.48.99,48.98.99s47.99,21.48,47.99,47.99Z"/>
          <circle class="cls-20" cx="49.1" cy="49.1" r="47.99" transform="translate(-.39 97.81) rotate(-89.55)"/>
          <circle class="cls-12" cx="49.23" cy="49.22" r="47.99" transform="translate(-.41 98.04) rotate(-89.52)"/>
          <circle class="cls-8" cx="49.35" cy="49.35" r="47.99" transform="translate(-.43 98.26) rotate(-89.5)"/>
          <circle class="cls-26" cx="49.47" cy="49.47" r="47.99" transform="translate(-.45 98.49) rotate(-89.48)"/>
          <circle class="cls-4" cx="49.6" cy="49.6" r="47.99" transform="translate(-.47 98.72) rotate(-89.46)"/>
          <circle class="cls-19" cx="49.72" cy="49.72" r="47.99" transform="translate(-.48 98.95) rotate(-89.44)"/>
          <circle class="cls-33" cx="49.84" cy="49.84" r="47.99" transform="translate(-.5 99.18) rotate(-89.42)"/>
          <circle class="cls-21" cx="49.97" cy="49.97" r="47.99" transform="translate(-.51 99.42) rotate(-89.41)"/>
          <circle class="cls-16" cx="50.09" cy="50.09" r="47.99" transform="translate(-.53 99.65) rotate(-89.39)"/>
          <circle class="cls-27" cx="50.22" cy="50.22" r="47.99" transform="translate(-.54 99.89) rotate(-89.38)"/>
          <circle class="cls-13" cx="50.34" cy="50.34" r="47.99" transform="translate(-.55 100.12) rotate(-89.37)"/>
          <circle class="cls-10" cx="50.46" cy="50.46" r="47.99" transform="translate(-.56 100.36) rotate(-89.36)"/>
          <circle class="cls-7" cx="50.59" cy="50.59" r="47.99" transform="translate(-.57 100.59) rotate(-89.35)"/>
          <circle class="cls-6" cx="50.71" cy="50.71" r="47.99" transform="translate(-.58 100.83) rotate(-89.34)"/>
          <circle class="cls-5" cx="50.84" cy="50.84" r="47.99" transform="translate(-.59 101.07) rotate(-89.33)"/>
          <circle class="cls-31" cx="50.96" cy="50.96" r="47.99" transform="translate(-.6 101.31) rotate(-89.32)"/>
          <circle class="cls-17" cx="51.08" cy="51.08" r="47.99" transform="translate(-.61 101.55) rotate(-89.31)"/>
          <circle class="cls-9" cx="51.21" cy="51.21" r="47.99" transform="translate(-.62 101.78) rotate(-89.3)"/>
          <circle class="cls-3" cx="51.33" cy="51.33" r="47.99" transform="translate(-.63 102.02) rotate(-89.29)"/>
          <circle class="cls-14" cx="51.45" cy="51.45" r="47.99" transform="translate(-.64 102.26) rotate(-89.29)"/>
          <circle class="cls-29" cx="51.58" cy="51.58" r="47.99" transform="translate(-.64 102.5) rotate(-89.28)"/>
          <circle class="cls-32" cx="51.7" cy="51.7" r="47.99" transform="translate(-.65 102.74) rotate(-89.27)"/>
          <circle class="cls-15" cx="51.83" cy="51.83" r="47.99" transform="translate(-.66 102.98) rotate(-89.27)"/>
        </g>
        <path class="cls-15" d="m38.53,33.33h31.75v-3.4h-9.2v-2.94c0-2.41-1.96-4.38-4.37-4.38h-17.78c-2.41,0-4.37,1.96-4.37,4.38v2.94h-9.02v3.4h13Zm0-6.34c0-.22.18-.4.4-.4h17.78c.23,0,.4.18.4.4v2.94h-18.57v-2.94Z"/>
        <path class="cls-15" d="m75.11,57.97v-23.36H20.7v23.36h2.8v2.38h-2.8v12.84h54.42v-12.84h-2.8v-2.38h2.8Zm-7.94-19.65c2.7,0,4.9,2.19,4.9,4.9s-2.19,4.9-4.9,4.9-4.9-2.19-4.9-4.9,2.19-4.9,4.9-4.9Zm-23.27,13.16l3.28-7.94,3.99-.54-4.5,7.66,3.42-.45,2.32-.31-1.36,1.79-6.2,8.17,3.68-7.47-3.62.49-1.71.23.69-1.66Zm-15.26-13.16c2.7,0,4.9,2.19,4.9,4.9s-2.19,4.9-4.9,4.9-4.9-2.19-4.9-4.9,2.19-4.9,4.9-4.9Zm45.66,34.07H21.51v-4.67h3.07v2.43h3.9v-2.43h6.78v2.43h3.9v-2.43h6.78v2.43h3.9v-2.43h6.78v2.43h3.9v-2.43h6.78v2.43h3.9v-2.43h3.07v4.67Z"/>
        <polygon class="cls-15" points="28.04 46.52 29.21 46.52 29.21 43.8 31.95 43.8 31.95 42.63 29.21 42.63 29.21 39.91 28.04 39.91 28.04 42.63 25.34 42.63 25.34 43.8 28.04 43.8 28.04 46.52"/>
        <rect class="cls-15" x="63.87" y="42.63" width="6.61" height="1.17"/>
      </g>
    </g>
  </g>
</svg>