<?xml version="1.0" encoding="UTF-8"?>
<svg xmlns="http://www.w3.org/2000/svg" viewBox="0 0 99.81 99.81">
  <defs>
    <style>
      .cls-1 {
        fill: #a3a3a3;
      }

      .cls-1, .cls-2, .cls-3, .cls-4, .cls-5, .cls-6, .cls-7, .cls-8, .cls-9, .cls-10, .cls-11, .cls-12, .cls-13, .cls-14, .cls-15, .cls-16, .cls-17, .cls-18, .cls-19, .cls-20, .cls-21, .cls-22, .cls-23, .cls-24, .cls-25, .cls-26, .cls-27, .cls-28, .cls-29, .cls-30, .cls-31, .cls-32, .cls-33 {
        stroke-width: 0px;
      }

      .cls-2 {
        fill: #1e6478;
      }

      .cls-3 {
        fill: #b2b2b2;
      }

      .cls-4 {
        fill: #f3f3f3;
      }

      .cls-5 {
        fill: #c8c8c8;
      }

      .cls-6 {
        fill: #e6e6e6;
      }

      .cls-34 {
        isolation: isolate;
      }

      .cls-7 {
        fill: #e3e3e3;
      }

      .cls-8 {
        fill: #e0e0e0;
      }

      .cls-9 {
        fill: #c2c2c2;
      }

      .cls-10 {
        fill: #f0f0f0;
      }

      .cls-11 {
        fill: #ddd;
      }

      .cls-12 {
        fill: #b9b9b9;
      }

      .cls-13 {
        fill: #bfbfbf;
      }

      .cls-14 {
        fill: #dadada;
      }

      .cls-15 {
        fill: #f6f6f6;
      }

      .cls-16 {
        fill: #fff;
      }

      .cls-17 {
        fill: #d4d4d4;
      }

      .cls-18 {
        fill: #ededed;
      }

      .cls-19 {
        fill: #a0a0a0;
      }

      .cls-20 {
        fill: #cbcbcb;
      }

      .cls-21 {
        fill: #bcbcbc;
      }

      .cls-22 {
        fill: #d1d1d1;
      }

      .cls-23 {
        fill: #b5b5b5;
      }

      .cls-24 {
        fill: #a6a6a6;
      }

      .cls-25 {
        fill: #acacac;
      }

      .cls-26 {
        fill: #c5c5c5;
      }

      .cls-27 {
        fill: #d7d7d7;
      }

      .cls-28 {
        fill: #a9a9a9;
      }

      .cls-29 {
        fill: #f9f9f9;
      }

      .cls-30 {
        fill: #afafaf;
      }

      .cls-31 {
        fill: #eaeaea;
      }

      .cls-32 {
        fill: #fcfcfc;
      }

      .cls-35 {
        mix-blend-mode: multiply;
      }

      .cls-33 {
        fill: #cecece;
      }
    </style>
  </defs>
  <g class="cls-34">
    <g id="Layer_1" data-name="Layer 1">
      <g>
        <path class="cls-2" d="m95.97,48.19c0,26.5-21.48,47.99-47.99,47.99S0,74.69,0,48.19,21.48.2,47.99.2s47.99,21.48,47.99,47.99Z"/>
        <g class="cls-35">
          <path class="cls-19" d="m95.97,47.99c0,26.5-21.48,47.99-47.99,47.99S0,74.49,0,47.99,21.48,0,47.99,0s47.99,21.48,47.99,47.99Z"/>
          <path class="cls-1" d="m96.1,48.11c0,26.5-21.48,47.99-47.99,47.99S.12,74.61.12,48.11,21.61.12,48.11.12s47.99,21.48,47.99,47.99Z"/>
          <path class="cls-24" d="m96.22,48.24c0,26.5-21.48,47.99-47.99,47.99S.25,74.74.25,48.24,21.73.25,48.23.25s47.99,21.48,47.99,47.99Z"/>
          <path class="cls-28" d="m96.35,48.36c0,26.5-21.48,47.99-47.99,47.99S.37,74.86.37,48.36,21.86.37,48.36.37s47.99,21.48,47.99,47.99Z"/>
          <path class="cls-25" d="m96.47,48.48c0,26.5-21.48,47.99-47.99,47.99S.5,74.99.5,48.48,21.98.5,48.48.5s47.99,21.48,47.99,47.99Z"/>
          <path class="cls-30" d="m96.59,48.61c0,26.5-21.48,47.99-47.99,47.99S.62,75.11.62,48.61,22.1.62,48.61.62s47.99,21.48,47.99,47.99Z"/>
          <path class="cls-3" d="m96.72,48.73c0,26.5-21.48,47.99-47.99,47.99S.74,75.23.74,48.73,22.23.74,48.73.74s47.99,21.48,47.99,47.99Z"/>
          <path class="cls-23" d="m96.84,48.85c0,26.5-21.48,47.99-47.99,47.99S.87,75.36.87,48.85,22.35.87,48.85.87s47.99,21.48,47.99,47.99Z"/>
          <path class="cls-12" d="m96.97,48.98c0,26.5-21.48,47.99-47.99,47.99S.99,75.48.99,48.98,22.48.99,48.98.99s47.99,21.48,47.99,47.99Z"/>
          <path class="cls-21" d="m97.09,49.1c0,26.5-21.48,47.99-47.99,47.99S1.11,75.61,1.11,49.1,22.6,1.11,49.1,1.11s47.99,21.48,47.99,47.99Z"/>
          <path class="cls-13" d="m97.21,49.23c0,26.5-21.48,47.99-47.99,47.99S1.24,75.73,1.24,49.23,22.72,1.24,49.22,1.24s47.99,21.48,47.99,47.99Z"/>
          <path class="cls-9" d="m97.34,49.35c0,26.5-21.48,47.99-47.99,47.99S1.36,75.85,1.36,49.35,22.85,1.36,49.35,1.36s47.99,21.48,47.99,47.99Z"/>
          <path class="cls-26" d="m97.46,49.47c0,26.5-21.48,47.99-47.99,47.99S1.49,75.98,1.49,49.47,22.97,1.49,49.47,1.49s47.99,21.48,47.99,47.99Z"/>
          <path class="cls-5" d="m97.58,49.6c0,26.5-21.48,47.99-47.99,47.99S1.61,76.1,1.61,49.6,23.09,1.61,49.6,1.61s47.99,21.48,47.99,47.99Z"/>
          <path class="cls-20" d="m97.71,49.72c0,26.5-21.48,47.99-47.99,47.99S1.73,76.22,1.73,49.72,23.22,1.73,49.72,1.73s47.99,21.48,47.99,47.99Z"/>
          <path class="cls-33" d="m97.83,49.85c0,26.5-21.48,47.99-47.99,47.99S1.86,76.35,1.86,49.85,23.34,1.86,49.84,1.86s47.99,21.48,47.99,47.99Z"/>
          <path class="cls-22" d="m97.96,49.97c0,26.5-21.48,47.99-47.99,47.99S1.98,76.47,1.98,49.97,23.47,1.98,49.97,1.98s47.99,21.48,47.99,47.99Z"/>
          <path class="cls-17" d="m98.08,50.09c0,26.5-21.48,47.99-47.99,47.99S2.11,76.6,2.11,50.09,23.59,2.11,50.09,2.11s47.99,21.48,47.99,47.99Z"/>
          <path class="cls-27" d="m98.2,50.22c0,26.5-21.48,47.99-47.99,47.99S2.23,76.72,2.23,50.22,23.71,2.23,50.22,2.23s47.99,21.48,47.99,47.99Z"/>
          <path class="cls-14" d="m98.33,50.34c0,26.5-21.48,47.99-47.99,47.99S2.35,76.84,2.35,50.34,23.84,2.35,50.34,2.35s47.99,21.48,47.99,47.99Z"/>
          <path class="cls-11" d="m98.45,50.46c0,26.5-21.48,47.99-47.99,47.99S2.48,76.97,2.48,50.46,23.96,2.48,50.46,2.48s47.99,21.48,47.99,47.99Z"/>
          <path class="cls-8" d="m98.58,50.59c0,26.5-21.48,47.99-47.99,47.99S2.6,77.09,2.6,50.59,24.09,2.6,50.59,2.6s47.99,21.48,47.99,47.99Z"/>
          <path class="cls-7" d="m98.7,50.71c0,26.5-21.48,47.99-47.99,47.99S2.73,77.22,2.73,50.71,24.21,2.73,50.71,2.73s47.99,21.48,47.99,47.99Z"/>
          <path class="cls-6" d="m98.82,50.84c0,26.5-21.48,47.99-47.99,47.99S2.85,77.34,2.85,50.84,24.33,2.85,50.84,2.85s47.99,21.48,47.99,47.99Z"/>
          <path class="cls-31" d="m98.95,50.96c0,26.5-21.48,47.99-47.99,47.99S2.97,77.46,2.97,50.96,24.46,2.97,50.96,2.97s47.99,21.48,47.99,47.99Z"/>
          <path class="cls-18" d="m99.07,51.08c0,26.5-21.48,47.99-47.99,47.99S3.1,77.59,3.1,51.08,24.58,3.1,51.08,3.1s47.99,21.48,47.99,47.99Z"/>
          <path class="cls-10" d="m99.2,51.21c0,26.5-21.48,47.99-47.99,47.99S3.22,77.71,3.22,51.21,24.7,3.22,51.21,3.22s47.99,21.48,47.99,47.99Z"/>
          <path class="cls-4" d="m99.32,51.33c0,26.5-21.48,47.99-47.99,47.99S3.34,77.83,3.34,51.33,24.83,3.34,51.33,3.34s47.99,21.48,47.99,47.99Z"/>
          <path class="cls-15" d="m99.44,51.45c0,26.5-21.48,47.99-47.99,47.99S3.47,77.96,3.47,51.45,24.95,3.47,51.45,3.47s47.99,21.48,47.99,47.99Z"/>
          <path class="cls-29" d="m99.57,51.58c0,26.5-21.48,47.99-47.99,47.99S3.59,78.08,3.59,51.58,25.08,3.59,51.58,3.59s47.99,21.48,47.99,47.99Z"/>
          <path class="cls-32" d="m99.69,51.7c0,26.5-21.48,47.99-47.99,47.99S3.72,78.21,3.72,51.7,25.2,3.72,51.7,3.72s47.99,21.48,47.99,47.99Z"/>
          <path class="cls-16" d="m99.81,51.83c0,26.5-21.48,47.99-47.99,47.99S3.84,78.33,3.84,51.83,25.32,3.84,51.83,3.84s47.99,21.48,47.99,47.99Z"/>
        </g>
        <path class="cls-16" d="m64.02,41.42v3.28c1.03,0,1.85.86,1.86,1.93v.19c0,1.14.89,2.07,1.97,2.06h.11s0,.51,0,.51h.51s0,.46,0,.46h-.51s0,.43,0,.43h.51v.46s-.51,0-.51,0v.44h.74c0,.64,0,1.33.02,2.03.06,6.64.15,17.75-1.42,19.34-.11.11-.17.11-.19.11-.38,0-.64-.1-.85-.3-.81-.82-.77-3.52-.71-7.61.02-1.28.04-2.71.04-4.29,0-4.12-.3-6.54-.98-7.83-.51-.98-1.2-1.24-1.88-1.31v-28c0-2.64-2.14-4.79-4.78-4.79h-22.34c-2.64,0-4.78,2.14-4.78,4.79v51.18c0,2.64,2.14,4.78,4.78,4.78h22.34c2.64,0,4.78-2.14,4.78-4.78v-22.23c.43.06.75.25,1.04.8.58,1.11.87,3.53.87,7.38,0,1.58-.02,3.01-.04,4.28-.07,4.63-.11,7.19.98,8.29.38.39.89.58,1.53.58.22,0,.55-.07.87-.39,1.72-1.73,1.79-10.09,1.7-20.02,0-.71,0-1.38-.02-2.03h.71s0-.45,0-.45h-.51s0-.46,0-.46h.51s0-.43,0-.43h-.51s0-.46,0-.46h.51v-.51s.11,0,.11,0c1.09,0,1.96-.93,1.96-2.08v-.19c0-1.07.81-1.94,1.83-1.94v-3.28s-10.24.04-10.24.04Zm-17.24,20.63c-5.15,0-9.32-4.17-9.32-9.32s4.17-9.32,9.32-9.32,9.32,4.17,9.32,9.32-4.17,9.32-9.32,9.32Zm12.08-25.98c0,1.58-1.29,2.87-2.87,2.87h-18.42c-1.59,0-2.87-1.29-2.87-2.87v-9.57c0-1.59,1.29-2.87,2.87-2.87h18.42c1.58,0,2.87,1.29,2.87,2.87v9.57Z"/>
        <path class="cls-16" d="m63.25,40.71h.76s0,.38,0,.38v-.36s10.22-.04,10.22-.04v-.02h.76s0-.84,0-.84h-3.04s-.01-3.97-.01-3.97c0-.15-.06-.31-.18-.42-.11-.11-.26-.17-.42-.17h-.12c-.33,0-.59.27-.59.59v3.98s-3.06.01-3.06.01l-.02-3.98c0-.33-.27-.59-.59-.59h-.12c-.16,0-.31.06-.42.17-.11.11-.17.26-.17.42l.02,3.98h-3.04s0,.85,0,.85Z"/>
        <polygon class="cls-16" points="45.86 52.56 50.76 46.29 47.16 46.29 43.3 52.95 42.49 54.34 44.04 54.34 47.31 54.33 43.15 60.52 49.63 54.01 51.05 52.58 48.95 52.57 45.86 52.56"/>
      </g>
    </g>
  </g>
</svg>