<?xml version="1.0" encoding="UTF-8"?>
<svg xmlns="http://www.w3.org/2000/svg" viewBox="0 0 99.81 99.81">
  <defs>
    <style>
      .cls-1 {
        fill: #a3a3a3;
      }

      .cls-1, .cls-2, .cls-3, .cls-4, .cls-5, .cls-6, .cls-7, .cls-8, .cls-9, .cls-10, .cls-11, .cls-12, .cls-13, .cls-14, .cls-15, .cls-16, .cls-17, .cls-18, .cls-19, .cls-20, .cls-21, .cls-22, .cls-23, .cls-24, .cls-25, .cls-26, .cls-27, .cls-28, .cls-29, .cls-30, .cls-31, .cls-32, .cls-33 {
        stroke-width: 0px;
      }

      .cls-2 {
        fill: #1e6478;
      }

      .cls-3 {
        fill: #b2b2b2;
      }

      .cls-4 {
        fill: #f3f3f3;
      }

      .cls-5 {
        fill: #c8c8c8;
      }

      .cls-6 {
        fill: #e6e6e6;
      }

      .cls-34 {
        isolation: isolate;
      }

      .cls-7 {
        fill: #e3e3e3;
      }

      .cls-8 {
        fill: #e0e0e0;
      }

      .cls-9 {
        fill: #c2c2c2;
      }

      .cls-10 {
        fill: #f0f0f0;
      }

      .cls-11 {
        fill: #ddd;
      }

      .cls-12 {
        fill: #b9b9b9;
      }

      .cls-13 {
        fill: #bfbfbf;
      }

      .cls-14 {
        fill: #dadada;
      }

      .cls-15 {
        fill: #f6f6f6;
      }

      .cls-16 {
        fill: #fff;
      }

      .cls-17 {
        fill: #d4d4d4;
      }

      .cls-18 {
        fill: #ededed;
      }

      .cls-19 {
        fill: #a0a0a0;
      }

      .cls-20 {
        fill: #cbcbcb;
      }

      .cls-21 {
        fill: #bcbcbc;
      }

      .cls-22 {
        fill: #d1d1d1;
      }

      .cls-23 {
        fill: #b5b5b5;
      }

      .cls-24 {
        fill: #a6a6a6;
      }

      .cls-25 {
        fill: #acacac;
      }

      .cls-26 {
        fill: #c5c5c5;
      }

      .cls-27 {
        fill: #d7d7d7;
      }

      .cls-28 {
        fill: #a9a9a9;
      }

      .cls-29 {
        fill: #f9f9f9;
      }

      .cls-30 {
        fill: #afafaf;
      }

      .cls-31 {
        fill: #eaeaea;
      }

      .cls-32 {
        fill: #fcfcfc;
      }

      .cls-35 {
        mix-blend-mode: multiply;
      }

      .cls-33 {
        fill: #cecece;
      }
    </style>
  </defs>
  <g class="cls-34">
    <g id="Layer_1" data-name="Layer 1">
      <g>
        <path class="cls-2" d="m95.97,48.18c0,26.5-21.48,47.99-47.99,47.99S0,74.69,0,48.18,21.48.2,47.99.2s47.99,21.48,47.99,47.99Z"/>
        <g class="cls-35">
          <path class="cls-19" d="m95.97,47.99c0,26.5-21.48,47.99-47.99,47.99S0,74.49,0,47.99,21.48,0,47.99,0s47.99,21.48,47.99,47.99Z"/>
          <path class="cls-1" d="m96.1,48.11c0,26.5-21.48,47.99-47.99,47.99S.12,74.61.12,48.11,21.61.12,48.11.12s47.99,21.48,47.99,47.99Z"/>
          <path class="cls-24" d="m96.22,48.23c0,26.5-21.48,47.99-47.99,47.99S.25,74.74.25,48.23,21.73.25,48.23.25s47.99,21.48,47.99,47.99Z"/>
          <path class="cls-28" d="m96.35,48.36c0,26.5-21.48,47.99-47.99,47.99S.37,74.86.37,48.36,21.86.37,48.36.37s47.99,21.48,47.99,47.99Z"/>
          <path class="cls-25" d="m96.47,48.48c0,26.5-21.48,47.99-47.99,47.99S.5,74.98.5,48.48,21.98.5,48.48.5s47.99,21.48,47.99,47.99Z"/>
          <path class="cls-30" d="m96.59,48.61c0,26.5-21.48,47.99-47.99,47.99S.62,75.11.62,48.61,22.1.62,48.61.62s47.99,21.48,47.99,47.99Z"/>
          <path class="cls-3" d="m96.72,48.73c0,26.5-21.48,47.99-47.99,47.99S.74,75.23.74,48.73,22.23.74,48.73.74s47.99,21.48,47.99,47.99Z"/>
          <path class="cls-23" d="m96.84,48.85c0,26.5-21.48,47.99-47.99,47.99S.87,75.36.87,48.85,22.35.87,48.85.87s47.99,21.48,47.99,47.99Z"/>
          <path class="cls-12" d="m96.96,48.98c0,26.5-21.48,47.99-47.99,47.99S.99,75.48.99,48.98,22.48.99,48.98.99s47.99,21.48,47.99,47.99Z"/>
          <path class="cls-21" d="m97.09,49.1c0,26.5-21.48,47.99-47.99,47.99S1.11,75.6,1.11,49.1,22.6,1.11,49.1,1.11s47.99,21.48,47.99,47.99Z"/>
          <path class="cls-13" d="m97.21,49.22c0,26.5-21.48,47.99-47.99,47.99S1.24,75.73,1.24,49.22,22.72,1.24,49.22,1.24s47.99,21.48,47.99,47.99Z"/>
          <path class="cls-9" d="m97.34,49.35c0,26.5-21.48,47.99-47.99,47.99S1.36,75.85,1.36,49.35,22.85,1.36,49.35,1.36s47.99,21.48,47.99,47.99Z"/>
          <path class="cls-26" d="m97.46,49.47c0,26.5-21.48,47.99-47.99,47.99S1.49,75.97,1.49,49.47,22.97,1.49,49.47,1.49s47.99,21.48,47.99,47.99Z"/>
          <path class="cls-5" d="m97.58,49.6c0,26.5-21.48,47.99-47.99,47.99S1.61,76.1,1.61,49.6,23.09,1.61,49.6,1.61s47.99,21.48,47.99,47.99Z"/>
          <path class="cls-20" d="m97.71,49.72c0,26.5-21.48,47.99-47.99,47.99S1.73,76.22,1.73,49.72,23.22,1.73,49.72,1.73s47.99,21.48,47.99,47.99Z"/>
          <path class="cls-33" d="m97.83,49.84c0,26.5-21.48,47.99-47.99,47.99S1.86,76.35,1.86,49.84,23.34,1.86,49.84,1.86s47.99,21.48,47.99,47.99Z"/>
          <path class="cls-22" d="m97.96,49.97c0,26.5-21.48,47.99-47.99,47.99S1.98,76.47,1.98,49.97,23.47,1.98,49.97,1.98s47.99,21.48,47.99,47.99Z"/>
          <path class="cls-17" d="m98.08,50.09c0,26.5-21.48,47.99-47.99,47.99S2.11,76.59,2.11,50.09,23.59,2.11,50.09,2.11s47.99,21.48,47.99,47.99Z"/>
          <path class="cls-27" d="m98.2,50.22c0,26.5-21.48,47.99-47.99,47.99S2.23,76.72,2.23,50.22,23.71,2.23,50.22,2.23s47.99,21.48,47.99,47.99Z"/>
          <path class="cls-14" d="m98.33,50.34c0,26.5-21.48,47.99-47.99,47.99S2.35,76.84,2.35,50.34,23.84,2.35,50.34,2.35s47.99,21.48,47.99,47.99Z"/>
          <path class="cls-11" d="m98.45,50.46c0,26.5-21.48,47.99-47.99,47.99S2.48,76.97,2.48,50.46,23.96,2.48,50.46,2.48s47.99,21.48,47.99,47.99Z"/>
          <path class="cls-8" d="m98.57,50.59c0,26.5-21.48,47.99-47.99,47.99S2.6,77.09,2.6,50.59,24.09,2.6,50.59,2.6s47.99,21.48,47.99,47.99Z"/>
          <path class="cls-7" d="m98.7,50.71c0,26.5-21.48,47.99-47.99,47.99S2.73,77.21,2.73,50.71,24.21,2.73,50.71,2.73s47.99,21.48,47.99,47.99Z"/>
          <path class="cls-6" d="m98.82,50.84c0,26.5-21.48,47.99-47.99,47.99S2.85,77.34,2.85,50.84,24.33,2.85,50.84,2.85s47.99,21.48,47.99,47.99Z"/>
          <path class="cls-31" d="m98.95,50.96c0,26.5-21.48,47.99-47.99,47.99S2.97,77.46,2.97,50.96,24.46,2.97,50.96,2.97s47.99,21.48,47.99,47.99Z"/>
          <path class="cls-18" d="m99.07,51.08c0,26.5-21.48,47.99-47.99,47.99S3.1,77.58,3.1,51.08,24.58,3.1,51.08,3.1s47.99,21.48,47.99,47.99Z"/>
          <path class="cls-10" d="m99.19,51.21c0,26.5-21.48,47.99-47.99,47.99S3.22,77.71,3.22,51.21,24.7,3.22,51.21,3.22s47.99,21.48,47.99,47.99Z"/>
          <path class="cls-4" d="m99.32,51.33c0,26.5-21.48,47.99-47.99,47.99S3.34,77.83,3.34,51.33,24.83,3.34,51.33,3.34s47.99,21.48,47.99,47.99Z"/>
          <path class="cls-15" d="m99.44,51.45c0,26.5-21.48,47.99-47.99,47.99S3.47,77.96,3.47,51.45,24.95,3.47,51.45,3.47s47.99,21.48,47.99,47.99Z"/>
          <path class="cls-29" d="m99.57,51.58c0,26.5-21.48,47.99-47.99,47.99S3.59,78.08,3.59,51.58,25.08,3.59,51.58,3.59s47.99,21.48,47.99,47.99Z"/>
          <path class="cls-32" d="m99.69,51.7c0,26.5-21.48,47.99-47.99,47.99S3.72,78.2,3.72,51.7,25.2,3.72,51.7,3.72s47.99,21.48,47.99,47.99Z"/>
          <path class="cls-16" d="m99.81,51.83c0,26.5-21.48,47.99-47.99,47.99S3.84,78.33,3.84,51.83,25.32,3.84,51.83,3.84s47.99,21.48,47.99,47.99Z"/>
        </g>
        <path class="cls-16" d="m69.2,70.67s0,0,0,0c-.95-1.23-1.74-3.52-2.38-6.34-.71-3.11-1.25-6.89-1.64-10.7-.23-2.08-.4-4.18-.55-6.18-.1-1.38-.19-2.71-.26-3.96-.15-2.75-.25-5.13-.31-6.74-.05-1.43-.06-2.27-.06-2.27h-10.03s-.02.83-.06,2.27c-.06,1.61-.15,3.99-.31,6.74-.07,1.26-.16,2.58-.27,3.96-.14,2-.32,4.1-.54,6.18-.17,1.68-.37,3.35-.61,4.96-.06.4-.11.8-.18,1.2-.06.39-.12.78-.19,1.17-.07.38-.13.75-.2,1.13-.07.37-.14.74-.21,1.09,0-.06-.02-.13-.03-.2-.02-.18-.05-.36-.07-.54l-.2-1.51c-.05-.35-.09-.69-.13-1.04-.06-.5-.11-1.01-.17-1.51-.06-.54-.12-1.08-.18-1.62-.32-3.05-.58-6.12-.79-9.04-.15-2.03-.27-3.97-.38-5.81-.24-4.03-.37-7.5-.45-9.87-.07-2.1-.09-3.32-.09-3.32h-14.68s-.02,1.22-.09,3.32c-.08,2.36-.22,5.83-.45,9.87-.11,1.84-.23,3.78-.38,5.81-.21,2.92-.47,5.99-.79,9.04-.58,5.58-1.36,11.12-2.4,15.67-.94,4.15-2.1,7.48-3.51,9.3h29.92c-.72-.93-1.38-2.27-1.98-3.91-.56-1.55-1.08-3.38-1.53-5.39-.13-.57-.26-1.16-.38-1.76h16.55Zm-14.51-33.12h8.59c.06,1.79.14,3.47.23,5.12h-9.05c.1-1.64.17-3.33.24-5.12Zm-1.17,16.88h10.92c.38,3.53.83,6.58,1.35,9.08h-13.63c.52-2.5.98-5.55,1.36-9.08Zm-18.59-21.58h13.28c.11,2.82.24,5.58.38,8.25h-14.04c.15-2.66.28-5.37.38-8.25Zm-3.81,38.77c.82-3.8,1.52-8.52,2.12-14.05h16.65c.3,2.83.64,5.44,1,7.84h0c.29,1.9.61,3.64.93,5.26h0c.06.33.13.65.2.96h-20.9Z"/>
        <path class="cls-16" d="m41.58,27.23c1.39,0,2.55-1,2.79-2.33.75.89,1.86,1.47,3.12,1.47,1.37,0,2.58-.68,3.33-1.72.35.17.73.27,1.14.27,1.24,0,2.27-.85,2.55-2,.12.01.25.04.37.04,1.62,0,3.01-.95,3.68-2.32.38.2.82.33,1.29.33,1.41,0,2.56-1.06,2.56-2.36,0,0,0,0,0-.02.67-.08,1.18-.66,1.18-1.38,0-.77-.6-1.4-1.35-1.4-.51,0-.95.29-1.17.73-.36-.18-.78-.3-1.22-.3-.56,0-1.08.17-1.5.45-.72-1.16-2-1.93-3.46-1.93-1.02,0-1.94.38-2.66,1-.75-1.02-1.94-1.69-3.3-1.69-1.8,0-3.31,1.17-3.86,2.78-.43-.17-.9-.27-1.39-.27-2.11,0-3.81,1.71-3.81,3.81,0,.54.12,1.05.32,1.52-.86.49-1.45,1.4-1.45,2.47,0,1.57,1.27,2.84,2.84,2.84Z"/>
      </g>
    </g>
  </g>
</svg>