<?xml version="1.0" encoding="UTF-8"?>
<svg xmlns="http://www.w3.org/2000/svg" viewBox="0 0 99.81 99.81">
  <defs>
    <style>
      .cls-1 {
        fill: #a3a3a3;
      }

      .cls-1, .cls-2, .cls-3, .cls-4, .cls-5, .cls-6, .cls-7, .cls-8, .cls-9, .cls-10, .cls-11, .cls-12, .cls-13, .cls-14, .cls-15, .cls-16, .cls-17, .cls-18, .cls-19, .cls-20, .cls-21, .cls-22, .cls-23, .cls-24, .cls-25, .cls-26, .cls-27, .cls-28, .cls-29, .cls-30, .cls-31, .cls-32, .cls-33 {
        stroke-width: 0px;
      }

      .cls-2 {
        fill: #eb507e;
      }

      .cls-3 {
        fill: #b2b2b2;
      }

      .cls-4 {
        fill: #f3f3f3;
      }

      .cls-5 {
        fill: #c8c8c8;
      }

      .cls-6 {
        fill: #e6e6e6;
      }

      .cls-34 {
        isolation: isolate;
      }

      .cls-7 {
        fill: #e3e3e3;
      }

      .cls-8 {
        fill: #e0e0e0;
      }

      .cls-9 {
        fill: #c2c2c2;
      }

      .cls-10 {
        fill: #f0f0f0;
      }

      .cls-11 {
        fill: #ddd;
      }

      .cls-12 {
        fill: #b9b9b9;
      }

      .cls-13 {
        fill: #bfbfbf;
      }

      .cls-14 {
        fill: #dadada;
      }

      .cls-15 {
        fill: #f6f6f6;
      }

      .cls-16 {
        fill: #fff;
      }

      .cls-17 {
        fill: #d4d4d4;
      }

      .cls-18 {
        fill: #ededed;
      }

      .cls-19 {
        fill: #a0a0a0;
      }

      .cls-20 {
        fill: #cbcbcb;
      }

      .cls-21 {
        fill: #bcbcbc;
      }

      .cls-22 {
        fill: #d1d1d1;
      }

      .cls-23 {
        fill: #b5b5b5;
      }

      .cls-24 {
        fill: #a6a6a6;
      }

      .cls-25 {
        fill: #acacac;
      }

      .cls-26 {
        fill: #c5c5c5;
      }

      .cls-27 {
        fill: #d7d7d7;
      }

      .cls-28 {
        fill: #a9a9a9;
      }

      .cls-29 {
        fill: #f9f9f9;
      }

      .cls-30 {
        fill: #afafaf;
      }

      .cls-31 {
        fill: #eaeaea;
      }

      .cls-32 {
        fill: #fcfcfc;
      }

      .cls-35 {
        mix-blend-mode: multiply;
      }

      .cls-33 {
        fill: #cecece;
      }
    </style>
  </defs>
  <g class="cls-34">
    <g id="Layer_1" data-name="Layer 1">
      <g>
        <path class="cls-2" d="m95.97,48.19c0,26.5-21.48,47.99-47.99,47.99S0,74.69,0,48.19,21.48.2,47.99.2s47.99,21.48,47.99,47.99Z"/>
        <g class="cls-35">
          <path class="cls-19" d="m95.97,47.99c0,26.5-21.48,47.99-47.99,47.99S0,74.49,0,47.99,21.48,0,47.99,0s47.99,21.48,47.99,47.99Z"/>
          <path class="cls-1" d="m96.1,48.11c0,26.5-21.48,47.99-47.99,47.99S.12,74.61.12,48.11,21.61.12,48.11.12s47.99,21.48,47.99,47.99Z"/>
          <path class="cls-24" d="m96.22,48.24c0,26.5-21.48,47.99-47.99,47.99S.25,74.74.25,48.24,21.73.25,48.23.25s47.99,21.48,47.99,47.99Z"/>
          <path class="cls-28" d="m96.35,48.36c0,26.5-21.48,47.99-47.99,47.99S.37,74.86.37,48.36,21.86.37,48.36.37s47.99,21.48,47.99,47.99Z"/>
          <path class="cls-25" d="m96.47,48.48c0,26.5-21.48,47.99-47.99,47.99S.5,74.99.5,48.48,21.98.5,48.48.5s47.99,21.48,47.99,47.99Z"/>
          <path class="cls-30" d="m96.59,48.61c0,26.5-21.48,47.99-47.99,47.99S.62,75.11.62,48.61,22.1.62,48.61.62s47.99,21.48,47.99,47.99Z"/>
          <path class="cls-3" d="m96.72,48.73c0,26.5-21.48,47.99-47.99,47.99S.74,75.23.74,48.73,22.23.74,48.73.74s47.99,21.48,47.99,47.99Z"/>
          <path class="cls-23" d="m96.84,48.85c0,26.5-21.48,47.99-47.99,47.99S.87,75.36.87,48.85,22.35.87,48.85.87s47.99,21.48,47.99,47.99Z"/>
          <path class="cls-12" d="m96.97,48.98c0,26.5-21.48,47.99-47.99,47.99S.99,75.48.99,48.98,22.48.99,48.98.99s47.99,21.48,47.99,47.99Z"/>
          <path class="cls-21" d="m97.09,49.1c0,26.5-21.48,47.99-47.99,47.99S1.11,75.61,1.11,49.1,22.6,1.11,49.1,1.11s47.99,21.48,47.99,47.99Z"/>
          <path class="cls-13" d="m97.21,49.23c0,26.5-21.48,47.99-47.99,47.99S1.24,75.73,1.24,49.23,22.72,1.24,49.22,1.24s47.99,21.48,47.99,47.99Z"/>
          <path class="cls-9" d="m97.34,49.35c0,26.5-21.48,47.99-47.99,47.99S1.36,75.85,1.36,49.35,22.85,1.36,49.35,1.36s47.99,21.48,47.99,47.99Z"/>
          <path class="cls-26" d="m97.46,49.47c0,26.5-21.48,47.99-47.99,47.99S1.49,75.98,1.49,49.47,22.97,1.49,49.47,1.49s47.99,21.48,47.99,47.99Z"/>
          <path class="cls-5" d="m97.58,49.6c0,26.5-21.48,47.99-47.99,47.99S1.61,76.1,1.61,49.6,23.09,1.61,49.6,1.61s47.99,21.48,47.99,47.99Z"/>
          <path class="cls-20" d="m97.71,49.72c0,26.5-21.48,47.99-47.99,47.99S1.73,76.22,1.73,49.72,23.22,1.73,49.72,1.73s47.99,21.48,47.99,47.99Z"/>
          <path class="cls-33" d="m97.83,49.85c0,26.5-21.48,47.99-47.99,47.99S1.86,76.35,1.86,49.85,23.34,1.86,49.84,1.86s47.99,21.48,47.99,47.99Z"/>
          <path class="cls-22" d="m97.96,49.97c0,26.5-21.48,47.99-47.99,47.99S1.98,76.47,1.98,49.97,23.47,1.98,49.97,1.98s47.99,21.48,47.99,47.99Z"/>
          <path class="cls-17" d="m98.08,50.09c0,26.5-21.48,47.99-47.99,47.99S2.11,76.6,2.11,50.09,23.59,2.11,50.09,2.11s47.99,21.48,47.99,47.99Z"/>
          <path class="cls-27" d="m98.2,50.22c0,26.5-21.48,47.99-47.99,47.99S2.23,76.72,2.23,50.22,23.71,2.23,50.22,2.23s47.99,21.48,47.99,47.99Z"/>
          <path class="cls-14" d="m98.33,50.34c0,26.5-21.48,47.99-47.99,47.99S2.35,76.84,2.35,50.34,23.84,2.35,50.34,2.35s47.99,21.48,47.99,47.99Z"/>
          <path class="cls-11" d="m98.45,50.46c0,26.5-21.48,47.99-47.99,47.99S2.48,76.97,2.48,50.46,23.96,2.48,50.46,2.48s47.99,21.48,47.99,47.99Z"/>
          <path class="cls-8" d="m98.58,50.59c0,26.5-21.48,47.99-47.99,47.99S2.6,77.09,2.6,50.59,24.09,2.6,50.59,2.6s47.99,21.48,47.99,47.99Z"/>
          <path class="cls-7" d="m98.7,50.71c0,26.5-21.48,47.99-47.99,47.99S2.73,77.22,2.73,50.71,24.21,2.73,50.71,2.73s47.99,21.48,47.99,47.99Z"/>
          <path class="cls-6" d="m98.82,50.84c0,26.5-21.48,47.99-47.99,47.99S2.85,77.34,2.85,50.84,24.33,2.85,50.84,2.85s47.99,21.48,47.99,47.99Z"/>
          <path class="cls-31" d="m98.95,50.96c0,26.5-21.48,47.99-47.99,47.99S2.97,77.46,2.97,50.96,24.46,2.97,50.96,2.97s47.99,21.48,47.99,47.99Z"/>
          <path class="cls-18" d="m99.07,51.08c0,26.5-21.48,47.99-47.99,47.99S3.1,77.59,3.1,51.08,24.58,3.1,51.08,3.1s47.99,21.48,47.99,47.99Z"/>
          <path class="cls-10" d="m99.2,51.21c0,26.5-21.48,47.99-47.99,47.99S3.22,77.71,3.22,51.21,24.7,3.22,51.21,3.22s47.99,21.48,47.99,47.99Z"/>
          <path class="cls-4" d="m99.32,51.33c0,26.5-21.48,47.99-47.99,47.99S3.34,77.83,3.34,51.33,24.83,3.34,51.33,3.34s47.99,21.48,47.99,47.99Z"/>
          <path class="cls-15" d="m99.44,51.45c0,26.5-21.48,47.99-47.99,47.99S3.47,77.96,3.47,51.45,24.95,3.47,51.45,3.47s47.99,21.48,47.99,47.99Z"/>
          <path class="cls-29" d="m99.57,51.58c0,26.5-21.48,47.99-47.99,47.99S3.59,78.08,3.59,51.58,25.08,3.59,51.58,3.59s47.99,21.48,47.99,47.99Z"/>
          <path class="cls-32" d="m99.69,51.7c0,26.5-21.48,47.99-47.99,47.99S3.72,78.21,3.72,51.7,25.2,3.72,51.7,3.72s47.99,21.48,47.99,47.99Z"/>
          <path class="cls-16" d="m99.81,51.83c0,26.5-21.48,47.99-47.99,47.99S3.84,78.33,3.84,51.83,25.32,3.84,51.83,3.84s47.99,21.48,47.99,47.99Z"/>
        </g>
        <rect class="cls-16" x="46.7" y="42.43" width="6.42" height="7.48"/>
        <path class="cls-16" d="m47.2,38.76c.96,0,1.26-.32,1.26-1.94,0-1.87-.35-2.02-1.26-2.02s-1.27.12-1.27,2.02c0,1.64.24,1.94,1.27,1.94Z"/>
        <path class="cls-16" d="m45.42,61.33c-.89,0-1.27.12-1.27,2.02,0,1.64.24,1.93,1.27,1.93.96,0,1.26-.32,1.26-1.93,0-1.87-.35-2.02-1.26-2.02Z"/>
        <path class="cls-16" d="m67.89,31.92H31.92v35.97h35.97V31.92Zm-17.52,1.87h1.16l2.38,3.88v-3.88h1.15v6h-1.15l-2.39-3.83v3.83h-1.16v-6Zm3.42,7.96v16.32h-7.78v-16.32h7.78Zm-6.6-8c1.42,0,2.41.27,2.41,3.08,0,2.65-.93,2.99-2.41,2.99s-2.41-.26-2.41-2.99,1.04-3.08,2.41-3.08Zm-9.37,17.56c-.77,0-1.39-.62-1.39-1.39s.62-1.39,1.39-1.39,1.39.62,1.39,1.39-.62,1.39-1.39,1.39Zm7.58,15.05c-1.47,0-2.41-.26-2.41-2.99s1.04-3.08,2.41-3.08,2.41.27,2.41,3.08c0,2.65-.93,2.99-2.41,2.99Zm6.93-4.95h-2.37c-.43,0-.43.24-.43.46v.94l2.42.09v.94l-2.42.08v2.42h-1.15v-4.74c0-.98.67-1.28,1.3-1.26,0,0,2.11.06,2.64.13v.95Zm4.64,0h-2.37c-.43,0-.43.24-.43.46v.94l2.42.09v.94l-2.42.08v2.42h-1.15v-4.74c0-.98.67-1.28,1.3-1.26,0,0,2.11.06,2.64.13v.95Zm4.99-10.1c-.77,0-1.39-.62-1.39-1.39s.62-1.39,1.39-1.39,1.39.62,1.39,1.39-.62,1.39-1.39,1.39Z"/>
        <path class="cls-16" d="m29.88,29.89v40.04h40.04V29.89H29.88Zm38.67,38.66H31.27V31.26h37.28v37.29Z"/>
      </g>
    </g>
  </g>
</svg>