<?xml version="1.0" encoding="UTF-8"?>
<svg xmlns="http://www.w3.org/2000/svg" viewBox="0 0 99.81 99.81">
  <defs>
    <style>
      .cls-1 {
        fill: #a3a3a3;
      }

      .cls-1, .cls-2, .cls-3, .cls-4, .cls-5, .cls-6, .cls-7, .cls-8, .cls-9, .cls-10, .cls-11, .cls-12, .cls-13, .cls-14, .cls-15, .cls-16, .cls-17, .cls-18, .cls-19, .cls-20, .cls-21, .cls-22, .cls-23, .cls-24, .cls-25, .cls-26, .cls-27, .cls-28, .cls-29, .cls-30, .cls-31, .cls-32, .cls-33 {
        stroke-width: 0px;
      }

      .cls-2 {
        fill: #b2b2b2;
      }

      .cls-3 {
        fill: #f3f3f3;
      }

      .cls-4 {
        fill: #c8c8c8;
      }

      .cls-5 {
        fill: #e6e6e6;
      }

      .cls-34 {
        isolation: isolate;
      }

      .cls-6 {
        fill: #e3e3e3;
      }

      .cls-7 {
        fill: #e0e0e0;
      }

      .cls-8 {
        fill: #c2c2c2;
      }

      .cls-9 {
        fill: #f0f0f0;
      }

      .cls-10 {
        fill: #ddd;
      }

      .cls-11 {
        fill: #b9b9b9;
      }

      .cls-12 {
        fill: #bfbfbf;
      }

      .cls-13 {
        fill: #dadada;
      }

      .cls-14 {
        fill: #f6f6f6;
      }

      .cls-15 {
        fill: #fff;
      }

      .cls-16 {
        fill: #d4d4d4;
      }

      .cls-17 {
        fill: #ededed;
      }

      .cls-18 {
        fill: #a0a0a0;
      }

      .cls-19 {
        fill: #cbcbcb;
      }

      .cls-20 {
        fill: #bcbcbc;
      }

      .cls-21 {
        fill: #d1d1d1;
      }

      .cls-22 {
        fill: #b5b5b5;
      }

      .cls-23 {
        fill: #94a4a5;
      }

      .cls-24 {
        fill: #a6a6a6;
      }

      .cls-25 {
        fill: #acacac;
      }

      .cls-26 {
        fill: #c5c5c5;
      }

      .cls-27 {
        fill: #d7d7d7;
      }

      .cls-28 {
        fill: #a9a9a9;
      }

      .cls-29 {
        fill: #f9f9f9;
      }

      .cls-30 {
        fill: #afafaf;
      }

      .cls-31 {
        fill: #eaeaea;
      }

      .cls-32 {
        fill: #fcfcfc;
      }

      .cls-35 {
        mix-blend-mode: multiply;
      }

      .cls-33 {
        fill: #cecece;
      }
    </style>
  </defs>
  <g class="cls-34">
    <g id="Layer_1" data-name="Layer 1">
      <g>
        <path class="cls-23" d="m95.97,48.18c0,26.5-21.48,47.99-47.99,47.99S0,74.69,0,48.18,21.48.2,47.99.2s47.99,21.48,47.99,47.99Z"/>
        <g class="cls-35">
          <path class="cls-18" d="m95.97,47.99c0,26.5-21.48,47.99-47.99,47.99S0,74.49,0,47.99,21.48,0,47.99,0s47.99,21.48,47.99,47.99Z"/>
          <path class="cls-1" d="m96.1,48.11c0,26.5-21.48,47.99-47.99,47.99S.12,74.61.12,48.11,21.61.12,48.11.12s47.99,21.48,47.99,47.99Z"/>
          <path class="cls-24" d="m96.22,48.23c0,26.5-21.48,47.99-47.99,47.99S.25,74.74.25,48.23,21.73.25,48.23.25s47.99,21.48,47.99,47.99Z"/>
          <path class="cls-28" d="m96.35,48.36c0,26.5-21.48,47.99-47.99,47.99S.37,74.86.37,48.36,21.86.37,48.36.37s47.99,21.48,47.99,47.99Z"/>
          <path class="cls-25" d="m96.47,48.48c0,26.5-21.48,47.99-47.99,47.99S.5,74.98.5,48.48,21.98.5,48.48.5s47.99,21.48,47.99,47.99Z"/>
          <path class="cls-30" d="m96.59,48.61c0,26.5-21.48,47.99-47.99,47.99S.62,75.11.62,48.61,22.1.62,48.61.62s47.99,21.48,47.99,47.99Z"/>
          <path class="cls-2" d="m96.72,48.73c0,26.5-21.48,47.99-47.99,47.99S.74,75.23.74,48.73,22.23.74,48.73.74s47.99,21.48,47.99,47.99Z"/>
          <path class="cls-22" d="m96.84,48.85c0,26.5-21.48,47.99-47.99,47.99S.87,75.36.87,48.85,22.35.87,48.85.87s47.99,21.48,47.99,47.99Z"/>
          <path class="cls-11" d="m96.96,48.98c0,26.5-21.48,47.99-47.99,47.99S.99,75.48.99,48.98,22.48.99,48.98.99s47.99,21.48,47.99,47.99Z"/>
          <circle class="cls-20" cx="49.1" cy="49.1" r="47.99" transform="translate(-17.22 69.68) rotate(-62.24)"/>
          <circle class="cls-12" cx="49.23" cy="49.23" r="47.99" transform="translate(-15.75 74.23) rotate(-66.05)"/>
          <circle class="cls-8" cx="49.35" cy="49.35" r="47.99" transform="translate(-13.75 79.16) rotate(-70.29)"/>
          <circle class="cls-26" cx="49.47" cy="49.47" r="47.99" transform="translate(-11.23 84.27) rotate(-74.82)"/>
          <circle class="cls-4" cx="49.6" cy="49.6" r="47.99" transform="translate(-8.24 89.28) rotate(-79.45)"/>
          <circle class="cls-19" cx="49.72" cy="49.72" r="47.99" transform="translate(-4.97 93.92) rotate(-83.94)"/>
          <circle class="cls-33" cx="49.84" cy="49.84" r="47.99" transform="translate(-1.63 98) rotate(-88.09)"/>
          <circle class="cls-21" cx="49.97" cy="49.97" r="47.99" transform="translate(-1.54 1.58) rotate(-1.79)"/>
          <circle class="cls-16" cx="50.09" cy="50.09" r="47.99" transform="translate(-4.18 4.56) rotate(-5)"/>
          <circle class="cls-27" cx="50.22" cy="50.22" r="47.99" transform="translate(-6.32 7.24) rotate(-7.76)"/>
          <circle class="cls-13" cx="50.34" cy="50.34" r="47.99" transform="translate(-8.05 9.61) rotate(-10.1)"/>
          <circle class="cls-10" cx="50.46" cy="50.46" r="47.99" transform="translate(-9.46 11.7) rotate(-12.1)"/>
          <circle class="cls-7" cx="50.59" cy="50.59" r="47.99" transform="translate(-10.61 13.53) rotate(-13.8)"/>
          <circle class="cls-6" cx="50.71" cy="50.71" r="47.99" transform="translate(-11.56 15.14) rotate(-15.27)"/>
          <circle class="cls-5" cx="50.84" cy="50.84" r="47.99" transform="translate(-12.36 16.56) rotate(-16.53)"/>
          <circle class="cls-31" cx="50.96" cy="50.96" r="47.99" transform="translate(-13.04 17.82) rotate(-17.62)"/>
          <circle class="cls-17" cx="51.08" cy="51.08" r="47.99" transform="translate(-13.61 18.94) rotate(-18.58)"/>
          <path class="cls-9" d="m99.19,51.21c0,26.5-21.48,47.99-47.99,47.99S3.22,77.71,3.22,51.21,24.7,3.22,51.21,3.22s47.99,21.48,47.99,47.99Z"/>
          <path class="cls-3" d="m99.32,51.33c0,26.5-21.48,47.99-47.99,47.99S3.34,77.83,3.34,51.33,24.83,3.34,51.33,3.34s47.99,21.48,47.99,47.99Z"/>
          <path class="cls-14" d="m99.44,51.45c0,26.5-21.48,47.99-47.99,47.99S3.47,77.96,3.47,51.45,24.95,3.47,51.45,3.47s47.99,21.48,47.99,47.99Z"/>
          <path class="cls-29" d="m99.57,51.58c0,26.5-21.48,47.99-47.99,47.99S3.59,78.08,3.59,51.58,25.08,3.59,51.58,3.59s47.99,21.48,47.99,47.99Z"/>
          <path class="cls-32" d="m99.69,51.7c0,26.5-21.48,47.99-47.99,47.99S3.72,78.21,3.72,51.7,25.2,3.72,51.7,3.72s47.99,21.48,47.99,47.99Z"/>
          <path class="cls-15" d="m99.81,51.83c0,26.5-21.48,47.99-47.99,47.99S3.84,78.33,3.84,51.83,25.32,3.84,51.83,3.84s47.99,21.48,47.99,47.99Z"/>
        </g>
        <path class="cls-15" d="m38.56,48.1l.25-.15c.68-.38,1.55-.13,1.93.55l1.05,1.88c.07,0,.13,0,.2,0,2.61,0,5.02-.81,7.01-2.2l-1.83-3.28c-.38-.68-.14-1.55.54-1.93l.26-.14c.32-.19.71-.23,1.07-.13.36.11.67.35.85.67l1.48,2.66c1.84-2.15,2.95-4.95,2.95-8,0-6.8-5.53-12.34-12.34-12.34s-12.34,5.53-12.34,12.34c0,5.36,3.44,9.95,8.23,11.63-.06-.24-.06-.49,0-.73.1-.36.34-.66.67-.85Zm9.04-12.05c1.1,0,2,.9,2,2s-.9,2-2,2-2-.89-2-2,.89-2,2-2Zm-11.41,4c-1.11,0-2-.89-2-2s.89-2,2-2,2,.9,2,2-.9,2-2,2Z"/>
        <path class="cls-15" d="m75.66,71.3c-.05-.39-.41-.66-.79-.61-.39.05-.66.41-.61.79,0,.05.64,5.27-3.98,7.84-4.15,2.32-7.04-.54-7.55-1.11l1.6-.89-.52-.93-1.06.59-.54-.96,1.06-.59-.5-.89-1.06.59-.54-.96,1.06-.59-.6-1.07.22-.12c2.28-1.27,3.03-4.24,1.69-6.63l-.22-.4c-1.25-2.24-.54-5.01,1.58-6.2l-4.06-7.27-1.06.59-6.17,3.44-14.17,7.91,4.06,7.27c2.12-1.18,4.85-.33,6.1,1.91l.22.4c1.34,2.4,4.27,3.31,6.55,2.04l.22-.12.59,1.06,1.06-.59.54.96-1.06.59.5.89,1.06-.59.54.96-1.06.59.52.93,2.2-1.23s.03.08.06.11c.03.04,2.19,2.62,5.59,2.62,1.14,0,2.43-.29,3.83-1.07,5.45-3.04,4.7-9.2,4.69-9.27Z"/>
        <path class="cls-15" d="m59.86,51.05l.41-.23,1.59-.89-.97-1.75-1.04.57v-24.58c0-2.21-1.79-4-4-4h-27.75c-2.2,0-4,1.79-4,4v27.74c0,2.21,1.8,4,4,4h13.2l-2.92-5.24c-5.49-1.56-9.53-6.63-9.53-12.64,0-7.24,5.9-13.14,13.14-13.14s13.14,5.9,13.14,13.14c0,3.35-1.26,6.42-3.33,8.75l2.75,4.93-2.73,1.52-2.42-4.35c-2.05,1.4-4.5,2.24-7.15,2.28l2.64,4.74h2.15l-1.63.92-2.72,1.51-4.76,2.66-1.59.89.97,1.75,1.6-.89,12.25-6.84,8.73-4.88Z"/>
      </g>
    </g>
  </g>
</svg>