<?xml version="1.0" encoding="UTF-8"?>
<svg xmlns="http://www.w3.org/2000/svg" viewBox="0 0 99.81 99.81">
  <defs>
    <style>
      .cls-1 {
        fill: #a3a3a3;
      }

      .cls-1, .cls-2, .cls-3, .cls-4, .cls-5, .cls-6, .cls-7, .cls-8, .cls-9, .cls-10, .cls-11, .cls-12, .cls-13, .cls-14, .cls-15, .cls-16, .cls-17, .cls-18, .cls-19, .cls-20, .cls-21, .cls-22, .cls-23, .cls-24, .cls-25, .cls-26, .cls-27, .cls-28, .cls-29, .cls-30, .cls-31, .cls-32, .cls-33 {
        stroke-width: 0px;
      }

      .cls-2 {
        fill: #eb507e;
      }

      .cls-3 {
        fill: #b2b2b2;
      }

      .cls-4 {
        fill: #f3f3f3;
      }

      .cls-5 {
        fill: #c8c8c8;
      }

      .cls-6 {
        fill: #e6e6e6;
      }

      .cls-34 {
        isolation: isolate;
      }

      .cls-7 {
        fill: #e3e3e3;
      }

      .cls-8 {
        fill: #e0e0e0;
      }

      .cls-9 {
        fill: #c2c2c2;
      }

      .cls-10 {
        fill: #f0f0f0;
      }

      .cls-11 {
        fill: #ddd;
      }

      .cls-12 {
        fill: #b9b9b9;
      }

      .cls-13 {
        fill: #bfbfbf;
      }

      .cls-14 {
        fill: #dadada;
      }

      .cls-15 {
        fill: #f6f6f6;
      }

      .cls-16 {
        fill: #fff;
      }

      .cls-17 {
        fill: #d4d4d4;
      }

      .cls-18 {
        fill: #ededed;
      }

      .cls-19 {
        fill: #a0a0a0;
      }

      .cls-20 {
        fill: #cbcbcb;
      }

      .cls-21 {
        fill: #bcbcbc;
      }

      .cls-22 {
        fill: #d1d1d1;
      }

      .cls-23 {
        fill: #b5b5b5;
      }

      .cls-24 {
        fill: #a6a6a6;
      }

      .cls-25 {
        fill: #acacac;
      }

      .cls-26 {
        fill: #c5c5c5;
      }

      .cls-27 {
        fill: #d7d7d7;
      }

      .cls-28 {
        fill: #a9a9a9;
      }

      .cls-29 {
        fill: #f9f9f9;
      }

      .cls-30 {
        fill: #afafaf;
      }

      .cls-31 {
        fill: #eaeaea;
      }

      .cls-32 {
        fill: #fcfcfc;
      }

      .cls-35 {
        mix-blend-mode: multiply;
      }

      .cls-33 {
        fill: #cecece;
      }
    </style>
  </defs>
  <g class="cls-34">
    <g id="Layer_1" data-name="Layer 1">
      <g>
        <path class="cls-2" d="m95.97,48.18c0,26.5-21.48,47.99-47.99,47.99S0,74.69,0,48.18,21.48.2,47.99.2s47.99,21.48,47.99,47.99Z"/>
        <g class="cls-35">
          <path class="cls-19" d="m95.97,47.99c0,26.5-21.48,47.99-47.99,47.99S0,74.49,0,47.99,21.48,0,47.99,0s47.99,21.48,47.99,47.99Z"/>
          <path class="cls-1" d="m96.1,48.11c0,26.5-21.48,47.99-47.99,47.99S.12,74.61.12,48.11,21.61.12,48.11.12s47.99,21.48,47.99,47.99Z"/>
          <path class="cls-24" d="m96.22,48.23c0,26.5-21.48,47.99-47.99,47.99S.25,74.74.25,48.23,21.73.25,48.23.25s47.99,21.48,47.99,47.99Z"/>
          <path class="cls-28" d="m96.35,48.36c0,26.5-21.48,47.99-47.99,47.99S.37,74.86.37,48.36,21.86.37,48.36.37s47.99,21.48,47.99,47.99Z"/>
          <path class="cls-25" d="m96.47,48.48c0,26.5-21.48,47.99-47.99,47.99S.5,74.98.5,48.48,21.98.5,48.48.5s47.99,21.48,47.99,47.99Z"/>
          <path class="cls-30" d="m96.59,48.61c0,26.5-21.48,47.99-47.99,47.99S.62,75.11.62,48.61,22.1.62,48.61.62s47.99,21.48,47.99,47.99Z"/>
          <path class="cls-3" d="m96.72,48.73c0,26.5-21.48,47.99-47.99,47.99S.74,75.23.74,48.73,22.23.74,48.73.74s47.99,21.48,47.99,47.99Z"/>
          <path class="cls-23" d="m96.84,48.85c0,26.5-21.48,47.99-47.99,47.99S.87,75.36.87,48.85,22.35.87,48.85.87s47.99,21.48,47.99,47.99Z"/>
          <path class="cls-12" d="m96.96,48.98c0,26.5-21.48,47.99-47.99,47.99S.99,75.48.99,48.98,22.48.99,48.98.99s47.99,21.48,47.99,47.99Z"/>
          <path class="cls-21" d="m97.09,49.1c0,26.5-21.48,47.99-47.99,47.99S1.11,75.6,1.11,49.1,22.6,1.11,49.1,1.11s47.99,21.48,47.99,47.99Z"/>
          <path class="cls-13" d="m97.21,49.23c0,26.5-21.48,47.99-47.99,47.99S1.24,75.73,1.24,49.23,22.72,1.24,49.22,1.24s47.99,21.48,47.99,47.99Z"/>
          <path class="cls-9" d="m97.34,49.35c0,26.5-21.48,47.99-47.99,47.99S1.36,75.85,1.36,49.35,22.85,1.36,49.35,1.36s47.99,21.48,47.99,47.99Z"/>
          <path class="cls-26" d="m97.46,49.47c0,26.5-21.48,47.99-47.99,47.99S1.49,75.98,1.49,49.47,22.97,1.49,49.47,1.49s47.99,21.48,47.99,47.99Z"/>
          <path class="cls-5" d="m97.58,49.6c0,26.5-21.48,47.99-47.99,47.99S1.61,76.1,1.61,49.6,23.09,1.61,49.6,1.61s47.99,21.48,47.99,47.99Z"/>
          <path class="cls-20" d="m97.71,49.72c0,26.5-21.48,47.99-47.99,47.99S1.73,76.22,1.73,49.72,23.22,1.73,49.72,1.73s47.99,21.48,47.99,47.99Z"/>
          <path class="cls-33" d="m97.83,49.84c0,26.5-21.48,47.99-47.99,47.99S1.86,76.35,1.86,49.84,23.34,1.86,49.84,1.86s47.99,21.48,47.99,47.99Z"/>
          <path class="cls-22" d="m97.96,49.97c0,26.5-21.48,47.99-47.99,47.99S1.98,76.47,1.98,49.97,23.47,1.98,49.97,1.98s47.99,21.48,47.99,47.99Z"/>
          <path class="cls-17" d="m98.08,50.09c0,26.5-21.48,47.99-47.99,47.99S2.11,76.59,2.11,50.09,23.59,2.11,50.09,2.11s47.99,21.48,47.99,47.99Z"/>
          <path class="cls-27" d="m98.2,50.22c0,26.5-21.48,47.99-47.99,47.99S2.23,76.72,2.23,50.22,23.71,2.23,50.22,2.23s47.99,21.48,47.99,47.99Z"/>
          <path class="cls-14" d="m98.33,50.34c0,26.5-21.48,47.99-47.99,47.99S2.35,76.84,2.35,50.34,23.84,2.35,50.34,2.35s47.99,21.48,47.99,47.99Z"/>
          <path class="cls-11" d="m98.45,50.46c0,26.5-21.48,47.99-47.99,47.99S2.48,76.97,2.48,50.46,23.96,2.48,50.46,2.48s47.99,21.48,47.99,47.99Z"/>
          <path class="cls-8" d="m98.57,50.59c0,26.5-21.48,47.99-47.99,47.99S2.6,77.09,2.6,50.59,24.09,2.6,50.59,2.6s47.99,21.48,47.99,47.99Z"/>
          <path class="cls-7" d="m98.7,50.71c0,26.5-21.48,47.99-47.99,47.99S2.73,77.21,2.73,50.71,24.21,2.73,50.71,2.73s47.99,21.48,47.99,47.99Z"/>
          <path class="cls-6" d="m98.82,50.84c0,26.5-21.48,47.99-47.99,47.99S2.85,77.34,2.85,50.84,24.33,2.85,50.84,2.85s47.99,21.48,47.99,47.99Z"/>
          <path class="cls-31" d="m98.95,50.96c0,26.5-21.48,47.99-47.99,47.99S2.97,77.46,2.97,50.96,24.46,2.97,50.96,2.97s47.99,21.48,47.99,47.99Z"/>
          <path class="cls-18" d="m99.07,51.08c0,26.5-21.48,47.99-47.99,47.99S3.1,77.59,3.1,51.08,24.58,3.1,51.08,3.1s47.99,21.48,47.99,47.99Z"/>
          <path class="cls-10" d="m99.19,51.21c0,26.5-21.48,47.99-47.99,47.99S3.22,77.71,3.22,51.21,24.7,3.22,51.21,3.22s47.99,21.48,47.99,47.99Z"/>
          <path class="cls-4" d="m99.32,51.33c0,26.5-21.48,47.99-47.99,47.99S3.34,77.83,3.34,51.33,24.83,3.34,51.33,3.34s47.99,21.48,47.99,47.99Z"/>
          <path class="cls-15" d="m99.44,51.45c0,26.5-21.48,47.99-47.99,47.99S3.47,77.96,3.47,51.45,24.95,3.47,51.45,3.47s47.99,21.48,47.99,47.99Z"/>
          <path class="cls-29" d="m99.57,51.58c0,26.5-21.48,47.99-47.99,47.99S3.59,78.08,3.59,51.58,25.08,3.59,51.58,3.59s47.99,21.48,47.99,47.99Z"/>
          <path class="cls-32" d="m99.69,51.7c0,26.5-21.48,47.99-47.99,47.99S3.72,78.21,3.72,51.7,25.2,3.72,51.7,3.72s47.99,21.48,47.99,47.99Z"/>
          <path class="cls-16" d="m99.81,51.83c0,26.5-21.48,47.99-47.99,47.99S3.84,78.33,3.84,51.83,25.32,3.84,51.83,3.84s47.99,21.48,47.99,47.99Z"/>
        </g>
        <path class="cls-16" d="m77.77,40.06h-.5c0-.35.02-.69.03-1.04.02-.64-.59-1.16-1.36-1.16h-.08l-.19-5.48h-.73l-.19,5.48h-.08c-.76,0-1.37.52-1.35,1.16,0,.36.02.7.03,1.04h-.5c-.25,0-.46.21-.46.46v.16c0,.25.21.46.46.46h.53c0,.37.02.75.03,1.11.03,1.02.05,1.99.08,2.92.02.93.05,1.83.07,2.7.02.88.04,1.73.07,2.59.02.86.04,1.72.07,2.59.03.88.05,1.77.07,2.7.02.93.05,1.9.08,2.91.03,1.02.06,2.09.09,3.24.01.57.36,1.04.79,1.14-.16,1.02-2.51,14.35-12.09,14.35-3.02,0-5.36-.86-6.96-2.55-1.02-1.08-1.59-2.35-1.92-3.51h2.69c.18,0,.36-.02.53-.05.94,2.03,2.64,3.95,5.42,3.95,5.43,0,6.79-11.61,6.85-12.1,0-.03,0-.05,0-.08.45-.08.8-.56.81-1.14.03-1.14.06-2.22.08-3.24.03-1.02.05-1.99.08-2.92.03-.93.05-1.82.07-2.7.02-.88.05-1.73.07-2.59.02-.86.05-1.72.07-2.59.03-.88.05-1.77.08-2.7.02-.93.05-1.89.08-2.92,0-.36.02-.73.03-1.11h.53c.25,0,.46-.21.46-.46v-.16c0-.25-.21-.46-.46-.46h-.5c0-.35.02-.69.03-1.04.02-.64-.59-1.16-1.35-1.16h-.08l-.19-5.48h-.73l-.19,5.48h-.08c-.77,0-1.37.52-1.36,1.16,0,.36.02.7.03,1.04h-.5c-.25,0-.46.21-.46.46v.16c0,.25.21.46.46.46h.53c.01.37.02.75.03,1.11.03,1.02.05,1.99.08,2.92.03.93.05,1.83.07,2.7.02.88.05,1.73.07,2.59.02.86.05,1.72.07,2.59.02.88.05,1.77.07,2.7s.05,1.9.08,2.91c.03,1.02.06,2.09.09,3.24.02.57.36,1.04.8,1.14-.36,3.11-2.05,11.03-5.7,11.03-2.32,0-3.63-1.64-4.35-3.22.78-.52,1.3-1.4,1.3-2.41V24.15c0-1.59-1.29-2.89-2.89-2.89h-23.99c-1.59,0-2.89,1.29-2.89,2.89v44.29c0,1.59,1.29,2.89,2.89,2.89h20.09c.36,1.38,1.02,2.95,2.28,4.29,1.82,1.94,4.45,2.92,7.81,2.92,10.89,0,13.22-15.25,13.24-15.4,0-.03,0-.07,0-.1.45-.08.8-.56.81-1.14.03-1.14.06-2.22.08-3.24.03-1.02.05-1.99.08-2.92.02-.93.05-1.82.07-2.7.02-.88.05-1.73.07-2.59.02-.86.05-1.72.07-2.59.02-.88.05-1.77.07-2.7.03-.93.05-1.89.08-2.92.01-.36.02-.73.03-1.11h.53c.26,0,.46-.21.46-.46v-.16c0-.25-.21-.46-.46-.46Zm-25.76,28.05v-.26h.59v-.59h.26v.59h.6v.26h-.6v.59h-.26v-.59h-.59Zm5.29,0h-1.44v-.26h1.44v.26Zm-.69-1.68c.86,0,1.55.69,1.55,1.55,0,.54-.28,1.01-.69,1.29-.06-.2-.1-.4-.14-.57.18-.19.3-.44.3-.72,0-.56-.45-1.02-1.02-1.02s-1.02.46-1.02,1.02c0,.41.24.76.59.92.04.19.09.4.15.6-.72-.13-1.27-.76-1.27-1.52,0-.86.69-1.55,1.55-1.55Zm-5.42-14.14v-2.45h5.15v2.45h-5.15Zm-18.61-27.92h23.76v24.02h-23.76v-24.02Zm17.56,27.92h-5.15v-2.45h5.15v2.45Zm-6.2-2.45v2.45h-5.15v-2.45h5.15Zm-11.35,0h5.15v2.45h-5.15v-2.45Zm1.25,19.69c-1.18,0-2.13-.95-2.13-2.13s.95-2.13,2.13-2.13,2.13.95,2.13,2.13-.95,2.13-2.13,2.13Zm2.99-8.08c0-4.23,3.42-7.65,7.65-7.65,1.59,0,3.06.48,4.29,1.31l-10.62,10.62c-.83-1.22-1.31-2.69-1.31-4.28Zm7.65,7.64c-1.59,0-3.06-.48-4.28-1.31l10.62-10.62c.83,1.22,1.31,2.7,1.31,4.29,0,4.22-3.42,7.64-7.65,7.64Zm6.73-1.11c0-.86.69-1.55,1.55-1.55s1.55.69,1.55,1.55c0,.63-.38,1.17-.91,1.41-.02-.22-.04-.43-.05-.6.25-.19.43-.47.43-.81,0-.56-.46-1.02-1.02-1.02s-1.02.46-1.02,1.02c0,.35.19.64.46.83,0,.18.02.4.04.63-.6-.22-1.02-.78-1.02-1.45Z"/>
      </g>
    </g>
  </g>
</svg>