<?xml version="1.0" encoding="UTF-8"?>
<svg xmlns="http://www.w3.org/2000/svg" viewBox="0 0 99.81 99.81">
  <defs>
    <style>
      .cls-1 {
        fill: #4DA7F7;
      }

      .cls-1, .cls-2, .cls-3, .cls-4, .cls-5, .cls-6, .cls-7, .cls-8, .cls-9, .cls-10, .cls-11, .cls-12, .cls-13, .cls-14, .cls-15, .cls-16, .cls-17, .cls-18, .cls-19, .cls-20, .cls-21, .cls-22, .cls-23, .cls-24, .cls-25, .cls-26, .cls-27, .cls-28, .cls-29, .cls-30, .cls-31, .cls-32, .cls-33 {
        stroke-width: 0px;
      }

      .cls-2 {
        fill: #4DA7F7;
      }

      .cls-3 {
        fill: #4DA7F7;
      }

      .cls-4 {
        fill: #4DA7F7;
      }

      .cls-5 {
        fill: #4DA7F7;
      }

      .cls-34 {
        isolation: isolate;
      }

      .cls-6 {
        fill: #4DA7F7;
      }

      .cls-7 {
        fill: #4DA7F7;
      }

      .cls-8 {
        fill: #4DA7F7;
      }

      .cls-9 {
        fill: #4DA7F7;
      }

      .cls-10 {
        fill: #4DA7F7;
      }

      .cls-11 {
        fill: #4DA7F7;
      }

      .cls-12 {
        fill: #4DA7F7;
      }

      .cls-13 {
        fill: #4DA7F7;
      }

      .cls-14 {
        fill: #4DA7F7;
      }

      .cls-15 {
        fill: #4DA7F7;
      }

      .cls-16 {
        fill: #4DA7F7;
      }

      .cls-17 {
        fill: #4DA7F7;
      }

      .cls-18 {
        fill: #4DA7F7;
      }

      .cls-19 {
        fill: #4DA7F7;
      }

      .cls-20 {
        fill: #4DA7F7;
      }

      .cls-21 {
        fill: #4DA7F7;
      }

      .cls-22 {
        fill: #4DA7F7;
      }

      .cls-23 {
        fill: #222222;
      }

      .cls-24 {
        fill: #4DA7F7;
      }

      .cls-25 {
        fill: #4DA7F7;
      }

      .cls-26 {
        fill: #4DA7F7;
      }

      .cls-27 {
        fill: #4DA7F7;
      }

      .cls-28 {
        fill: #4DA7F7;
      }

      .cls-29 {
        fill: #4DA7F7;
      }

      .cls-30 {
        fill: #4DA7F7;
      }

      .cls-31 {
        fill: #4DA7F7;
      }

      .cls-32 {
        fill: #4DA7F7;
      }

      .cls-35 {
        mix-blend-mode: multiply;
      }

      .cls-33 {
        fill: #4DA7F7;
      }
    </style>
  </defs>
  <g class="cls-34">
    <g id="Layer_1" data-name="Layer 1">
      <g>
        <path class="cls-23" d="m95.97,48.18c0,26.5-21.48,47.99-47.99,47.99S0,74.69,0,48.18,21.48.2,47.99.2s47.99,21.48,47.99,47.99Z"/>
        <g class="cls-35">
          <path class="cls-18" d="m95.97,47.99c0,26.5-21.48,47.99-47.99,47.99S0,74.49,0,47.99,21.48,0,47.99,0s47.99,21.48,47.99,47.99Z"/>
          <path class="cls-1" d="m96.1,48.11c0,26.5-21.48,47.99-47.99,47.99S.12,74.61.12,48.11,21.61.12,48.11.12s47.99,21.48,47.99,47.99Z"/>
          <path class="cls-24" d="m96.22,48.23c0,26.5-21.48,47.99-47.99,47.99S.25,74.74.25,48.23,21.73.25,48.23.25s47.99,21.48,47.99,47.99Z"/>
          <path class="cls-28" d="m96.35,48.36c0,26.5-21.48,47.99-47.99,47.99S.37,74.86.37,48.36,21.86.37,48.36.37s47.99,21.48,47.99,47.99Z"/>
          <path class="cls-25" d="m96.47,48.48c0,26.5-21.48,47.99-47.99,47.99S.5,74.98.5,48.48,21.98.5,48.48.5s47.99,21.48,47.99,47.99Z"/>
          <path class="cls-30" d="m96.59,48.61c0,26.5-21.48,47.99-47.99,47.99S.62,75.11.62,48.61,22.1.62,48.61.62s47.99,21.48,47.99,47.99Z"/>
          <circle class="cls-2" cx="48.73" cy="48.73" r="47.99" transform="translate(-19.17 60.53) rotate(-54.86)"/>
          <circle class="cls-22" cx="48.85" cy="48.85" r="47.99" transform="translate(-18.55 64.01) rotate(-57.67)"/>
          <circle class="cls-11" cx="48.98" cy="48.98" r="47.99" transform="translate(-17.62 68.03) rotate(-60.96)"/>
          <circle class="cls-20" cx="49.1" cy="49.1" r="47.99" transform="translate(-16.25 72.59) rotate(-64.77)"/>
          <circle class="cls-12" cx="49.23" cy="49.23" r="47.99" transform="translate(-14.35 77.59) rotate(-69.04)"/>
          <circle class="cls-8" cx="49.35" cy="49.35" r="47.99" transform="translate(-11.89 82.82) rotate(-73.66)"/>
          <circle class="cls-26" cx="49.47" cy="49.47" r="47.99" transform="translate(-8.93 88) rotate(-78.41)"/>
          <circle class="cls-4" cx="49.6" cy="49.6" r="47.99" transform="translate(-5.64 92.82) rotate(-83.04)"/>
          <circle class="cls-19" cx="49.72" cy="49.72" r="47.99" transform="translate(-2.26 97.07) rotate(-87.33)"/>
          <circle class="cls-33" cx="49.84" cy="49.84" r="47.99" transform="translate(-.99 1.01) rotate(-1.15)"/>
          <circle class="cls-21" cx="49.97" cy="49.97" r="47.99" transform="translate(-3.74 4.04) rotate(-4.46)"/>
          <circle class="cls-16" cx="50.09" cy="50.09" r="47.99" transform="translate(-5.95 6.76) rotate(-7.29)"/>
          <circle class="cls-27" cx="50.22" cy="50.22" r="47.99" transform="translate(-7.73 9.17) rotate(-9.69)"/>
          <circle class="cls-13" cx="50.34" cy="50.34" r="47.99" transform="translate(-9.18 11.28) rotate(-11.72)"/>
          <circle class="cls-10" cx="50.46" cy="50.46" r="47.99" transform="translate(-10.35 13.12) rotate(-13.45)"/>
          <circle class="cls-7" cx="50.59" cy="50.59" r="47.99" transform="translate(-11.32 14.73) rotate(-14.92)"/>
          <circle class="cls-6" cx="50.71" cy="50.71" r="47.99" transform="translate(-12.13 16.16) rotate(-16.19)"/>
          <circle class="cls-5" cx="50.84" cy="50.84" r="47.99" transform="translate(-12.81 17.41) rotate(-17.3)"/>
          <circle class="cls-31" cx="50.96" cy="50.96" r="47.99" transform="translate(-13.4 18.53) rotate(-18.25)"/>
          <circle class="cls-17" cx="51.08" cy="51.08" r="47.99" transform="translate(-13.9 19.52) rotate(-19.1)"/>
          <path class="cls-9" d="m99.19,51.21c0,26.5-21.48,47.99-47.99,47.99S3.22,77.71,3.22,51.21,24.7,3.22,51.21,3.22s47.99,21.48,47.99,47.99Z"/>
          <path class="cls-3" d="m99.32,51.33c0,26.5-21.48,47.99-47.99,47.99S3.34,77.83,3.34,51.33,24.83,3.34,51.33,3.34s47.99,21.48,47.99,47.99Z"/>
          <path class="cls-14" d="m99.44,51.45c0,26.5-21.48,47.99-47.99,47.99S3.47,77.96,3.47,51.45,24.95,3.47,51.45,3.47s47.99,21.48,47.99,47.99Z"/>
          <path class="cls-29" d="m99.57,51.58c0,26.5-21.48,47.99-47.99,47.99S3.59,78.08,3.59,51.58,25.08,3.59,51.58,3.59s47.99,21.48,47.99,47.99Z"/>
          <path class="cls-32" d="m99.69,51.7c0,26.5-21.48,47.99-47.99,47.99S3.72,78.21,3.72,51.7,25.2,3.72,51.7,3.72s47.99,21.48,47.99,47.99Z"/>
          <path class="cls-15" d="m99.81,51.83c0,26.5-21.48,47.99-47.99,47.99S3.84,78.33,3.84,51.83,25.32,3.84,51.83,3.84s47.99,21.48,47.99,47.99Z"/>
        </g>
        <path class="cls-15" d="m54.15,65.13h27.74l-6.81-40.95H20.89l-6.81,40.95h27.39v4.25h-6.18v4.81h25.03v-4.81h-6.18v-4.25Zm0-22.3h10.25l.78,8.62h-10.74l-.29-8.62Zm.66,19.57l-.33-9.62h10.81l.87,9.62h-11.36Zm24.06,0h-11.35l-.93-9.62h10.8l1.48,9.62Zm-1.68-10.94h-10.73l-.84-8.62h10.24l1.32,8.62Zm-1.51-9.81h-10.18l-.75-7.78h9.74l1.19,7.78Zm-2.43-15.9l1.08,7.05h-9.69l-.69-7.05h9.29Zm-8.96,15.9h-10.18l-.26-7.78h9.75l.7,7.78Zm-1.44-15.9l.64,7.05h-9.69l-.24-7.05h9.29Zm-19.68,0h9.29l.19,7.05h-9.68l.21-7.05Zm-.24,8.12h9.75l.21,7.78h-10.18l.23-7.78Zm-.26,8.97h10.25l.24,8.62h-10.74l.25-8.62Zm-.29,9.95h10.81l.26,9.62h-11.36l.28-9.62Zm-9.61-27.04h9.29l-.25,7.05h-9.68l.65-7.05Zm9,8.12l-.28,7.78h-10.18l.72-7.78h9.75Zm-19.39-8.12h9.29l-.7,7.05h-9.69l1.1-7.05Zm-1.26,8.12h9.75l-.77,7.78h-10.18l1.21-7.78Zm6.92,28.53h-11.36l1.5-9.62h10.81l-.95,9.62Zm-9.66-10.94l1.34-8.62h10.25l-.86,8.62h-10.74Zm22.36,10.94h-11.36l.89-9.62h10.81l-.35,9.62Zm.39-10.94h-10.74l.8-8.62h10.25l-.31,8.62Z"/>
      </g>
    </g>
  </g>
</svg>