<?xml version="1.0" encoding="UTF-8"?>
<svg xmlns="http://www.w3.org/2000/svg" viewBox="0 0 99.81 99.81">
  <defs>
    <style>
      .cls-1 {
        fill: #4DA7F7;
      }

      .cls-1, .cls-2, .cls-3, .cls-4, .cls-5, .cls-6, .cls-7, .cls-8, .cls-9, .cls-10, .cls-11, .cls-12, .cls-13, .cls-14, .cls-15, .cls-16, .cls-17, .cls-18, .cls-19, .cls-20, .cls-21, .cls-22, .cls-23, .cls-24, .cls-25, .cls-26, .cls-27, .cls-28, .cls-29, .cls-30, .cls-31, .cls-32, .cls-33 {
        stroke-width: 0px;
      }

      .cls-2 {
        fill: #4DA7F7;
      }

      .cls-3 {
        fill: #4DA7F7;
      }

      .cls-4 {
        fill: #4DA7F7;
      }

      .cls-5 {
        fill: #4DA7F7;
      }

      .cls-34 {
        isolation: isolate;
      }

      .cls-6 {
        fill: #4DA7F7;
      }

      .cls-7 {
        fill: #4DA7F7;
      }

      .cls-8 {
        fill: #4DA7F7;
      }

      .cls-9 {
        fill: #4DA7F7;
      }

      .cls-10 {
        fill: #4DA7F7;
      }

      .cls-11 {
        fill: #4DA7F7;
      }

      .cls-12 {
        fill: #4DA7F7;
      }

      .cls-13 {
        fill: #4DA7F7;
      }

      .cls-14 {
        fill: #4DA7F7;
      }

      .cls-15 {
        fill: #4DA7F7;
      }

      .cls-16 {
        fill: #4DA7F7;
      }

      .cls-17 {
        fill: #4DA7F7;
      }

      .cls-18 {
        fill: #4DA7F7;
      }

      .cls-19 {
        fill: #4DA7F7;
      }

      .cls-20 {
        fill: #4DA7F7;
      }

      .cls-21 {
        fill: #4DA7F7;
      }

      .cls-22 {
        fill: #4DA7F7;
      }

      .cls-23 {
        fill: #222222;
      }

      .cls-24 {
        fill: #a6a6a6;
      }

      .cls-25 {
        fill: #4DA7F7;
      }

      .cls-26 {
        fill: #4DA7F7;
      }

      .cls-27 {
        fill: #4DA7F7;
      }

      .cls-28 {
        fill: #4DA7F7;
      }

      .cls-29 {
        fill: #4DA7F7;
      }

      .cls-30 {
        fill: #4DA7F7;
      }

      .cls-31 {
        fill: #4DA7F7;
      }

      .cls-32 {
        fill: #4DA7F7;
      }

      .cls-35 {
        mix-blend-mode: multiply;
      }

      .cls-33 {
        fill: #4DA7F7;
      }
    </style>
  </defs>
  <g class="cls-34">
    <g id="Layer_1" data-name="Layer 1">
      <g>
        <path class="cls-23" d="m95.97,48.18c0,26.5-21.48,47.99-47.99,47.99S0,74.69,0,48.18,21.48.2,47.99.2s47.99,21.48,47.99,47.99Z"/>
        <g class="cls-35">
          <path class="cls-18" d="m95.97,47.99c0,26.5-21.48,47.99-47.99,47.99S0,74.49,0,47.99,21.48,0,47.99,0s47.99,21.48,47.99,47.99Z"/>
          <path class="cls-1" d="m96.1,48.11c0,26.5-21.48,47.99-47.99,47.99S.12,74.61.12,48.11,21.61.12,48.11.12s47.99,21.48,47.99,47.99Z"/>
          <path class="cls-24" d="m96.22,48.23c0,26.5-21.48,47.99-47.99,47.99S.25,74.74.25,48.23,21.73.25,48.23.25s47.99,21.48,47.99,47.99Z"/>
          <path class="cls-28" d="m96.35,48.36c0,26.5-21.48,47.99-47.99,47.99S.37,74.86.37,48.36,21.86.37,48.36.37s47.99,21.48,47.99,47.99Z"/>
          <path class="cls-25" d="m96.47,48.48c0,26.5-21.48,47.99-47.99,47.99S.5,74.98.5,48.48,21.98.5,48.48.5s47.99,21.48,47.99,47.99Z"/>
          <path class="cls-30" d="m96.59,48.61c0,26.5-21.48,47.99-47.99,47.99S.62,75.11.62,48.61,22.1.62,48.61.62s47.99,21.48,47.99,47.99Z"/>
          <path class="cls-2" d="m96.72,48.73c0,26.5-21.48,47.99-47.99,47.99S.74,75.23.74,48.73,22.23.74,48.73.74s47.99,21.48,47.99,47.99Z"/>
          <circle class="cls-22" cx="48.85" cy="48.85" r="47.99" transform="translate(-16.13 72.31) rotate(-64.85)"/>
          <circle class="cls-11" cx="48.98" cy="48.98" r="47.99" transform="translate(-15.1 75.28) rotate(-67.32)"/>
          <circle class="cls-20" cx="49.1" cy="49.1" r="47.99" transform="translate(-13.82 78.47) rotate(-70.02)"/>
          <circle class="cls-12" cx="49.23" cy="49.23" r="47.99" transform="translate(-12.29 81.82) rotate(-72.92)"/>
          <circle class="cls-8" cx="49.35" cy="49.35" r="47.99" transform="translate(-10.48 85.28) rotate(-75.99)"/>
          <circle class="cls-26" cx="49.47" cy="49.47" r="47.99" transform="translate(-8.42 88.76) rotate(-79.16)"/>
          <circle class="cls-4" cx="49.6" cy="49.6" r="47.99" transform="translate(-6.15 92.16) rotate(-82.36)"/>
          <circle class="cls-19" cx="49.72" cy="49.72" r="47.99" transform="translate(-3.73 95.4) rotate(-85.52)"/>
          <circle class="cls-33" cx="49.84" cy="49.84" r="47.99" transform="translate(-1.25 98.41) rotate(-88.55)"/>
          <circle class="cls-21" cx="49.97" cy="49.97" r="47.99" transform="translate(-1.21 1.24) rotate(-1.4)"/>
          <circle class="cls-16" cx="50.09" cy="50.09" r="47.99" transform="translate(-3.41 3.66) rotate(-4.04)"/>
          <circle class="cls-27" cx="50.22" cy="50.22" r="47.99" transform="translate(-5.33 5.96) rotate(-6.46)"/>
          <circle class="cls-13" cx="50.34" cy="50.34" r="47.99" transform="translate(-6.99 8.13) rotate(-8.64)"/>
          <circle class="cls-10" cx="50.46" cy="50.46" r="47.99" transform="translate(-8.42 10.14) rotate(-10.6)"/>
          <circle class="cls-7" cx="50.59" cy="50.59" r="47.99" transform="translate(-9.65 11.99) rotate(-12.35)"/>
          <circle class="cls-6" cx="50.71" cy="50.71" r="47.99" transform="translate(-10.71 13.69) rotate(-13.92)"/>
          <circle class="cls-5" cx="50.84" cy="50.84" r="47.99" transform="translate(-11.63 15.24) rotate(-15.33)"/>
          <circle class="cls-31" cx="50.96" cy="50.96" r="47.99" transform="translate(-12.42 16.66) rotate(-16.58)"/>
          <circle class="cls-17" cx="51.08" cy="51.08" r="47.99" transform="translate(-13.12 17.96) rotate(-17.71)"/>
          <path class="cls-9" d="m99.19,51.21c0,26.5-21.48,47.99-47.99,47.99S3.22,77.71,3.22,51.21,24.7,3.22,51.21,3.22s47.99,21.48,47.99,47.99Z"/>
          <path class="cls-3" d="m99.32,51.33c0,26.5-21.48,47.99-47.99,47.99S3.34,77.83,3.34,51.33,24.83,3.34,51.33,3.34s47.99,21.48,47.99,47.99Z"/>
          <path class="cls-14" d="m99.44,51.45c0,26.5-21.48,47.99-47.99,47.99S3.47,77.96,3.47,51.45,24.95,3.47,51.45,3.47s47.99,21.48,47.99,47.99Z"/>
          <path class="cls-29" d="m99.57,51.58c0,26.5-21.48,47.99-47.99,47.99S3.59,78.08,3.59,51.58,25.08,3.59,51.58,3.59s47.99,21.48,47.99,47.99Z"/>
          <path class="cls-32" d="m99.69,51.7c0,26.5-21.48,47.99-47.99,47.99S3.72,78.21,3.72,51.7,25.2,3.72,51.7,3.72s47.99,21.48,47.99,47.99Z"/>
          <path class="cls-15" d="m99.81,51.83c0,26.5-21.48,47.99-47.99,47.99S3.84,78.33,3.84,51.83,25.32,3.84,51.83,3.84s47.99,21.48,47.99,47.99Z"/>
        </g>
        <path class="cls-15" d="m59.28,26.59h.02v-2.75c0-.49-.03-.96-.08-1.41-.02-.15-.05-.3-.07-.45-.04-.29-.09-.59-.16-.87-.04-.16-.08-.32-.13-.48-.07-.26-.15-.51-.24-.76-.05-.15-.11-.29-.17-.43-.11-.26-.23-.5-.35-.74-.04-.07-.07-.15-.11-.22-.45,1.04-1.17,3.48-1.2,8.3.84-.05,1.67-.12,2.49-.19Z"/>
        <path class="cls-15" d="m48.09,27.06c2.73,0,5.44-.08,8.09-.24.03-5.58.97-8.07,1.43-8.96-.06-.08-.13-.16-.19-.24-.15-.22-.32-.43-.49-.63-.1-.12-.2-.24-.3-.35-.23-.25-.48-.49-.74-.72-.05-.04-.09-.09-.14-.13-.31-.26-.63-.49-.97-.71-.11-.08-.23-.14-.35-.21-.24-.15-.49-.29-.75-.42-.08-.04-.16-.08-.24-.12l.06-.35c.09-.49-.19-.98-.65-1.17-2.93-1.16-6.57-1.2-9.54-.11-.48.18-.77.67-.68,1.18l.06.32s-.04.02-.07.03c-.33.15-.65.32-.97.5-.1.06-.2.12-.31.19-.27.17-.52.34-.77.53-.09.07-.18.13-.26.2-.65.53-1.24,1.14-1.75,1.83-.02.03-.04.05-.06.07.32.48,1.56,2.82,1.6,9.27,2.57.15,5.23.24,7.97.24Zm-4.45-13.5c2.77-1.02,6.16-.98,8.88.1.06.02.1.09.09.16l-1.72,9.72h-5.62l-1.73-9.82c-.01-.07.03-.14.09-.16Z"/>
        <path class="cls-15" d="m35.36,28.34c-.12.19-.23.42-.31.7-.12.39-.19.86-.2,1.38-.05,1.13.13,2.7.55,4.93.4,2.08,1.1,3.13,2.08,3.13.15,0,.29-.03.42-.07,1.61,5.98,5.25,9.66,10.07,9.66s8.48-3.71,10.08-9.72c.16.07.34.13.55.13.98,0,1.68-1.05,2.08-3.12.63-3.28.85-5.79,0-7.05.44-.18.69-.38.69-.58,0-.36-.76-.69-2.07-.97v.45c-3.63.31-7.4.47-11.21.47-4,0-7.87-.17-11.47-.49v-.42c-1.3.28-2.06.6-2.06.97,0,.22.28.43.8.62Zm22.93,8.99c.11-.48.2-.98.28-1.49,0-.02,0-.05,0-.07.07-.46.14-.94.19-1.42.02-.16.03-.33.04-.5.03-.36.06-.72.08-1.09.03-.56.05-1.14.05-1.71,0-.45,0-.88-.02-1.3,0-.08,0-.15,0-.23,0-.25-.01-.5-.02-.74.13-.03.28-.05.41-.08.15-.03.3-.07.44-.1.78.68.79,2.71.05,6.58-.34,1.76-.83,2.38-1.18,2.38-.12,0-.23-.06-.32-.11v-.12Zm-20.37-7.7c0-.06,0-.12,0-.19,0-.17.01-.34.02-.51,2.46.38,6.02.62,10.01.62s7.56-.24,10.02-.62c0,.2.02.4.02.59,0,.06,0,.11,0,.17.01.44.02.89.02,1.35,0,.56-.02,1.1-.04,1.63-.02.47-.06.94-.11,1.4,0,.04,0,.08,0,.11-.11,1.02-.26,2.02-.48,3h0c-1.36,6.13-4.8,9.95-9.42,9.95s-7.8-3.53-9.26-9.26h0s-.07-.28-.07-.28c-.49-2.01-.73-4.22-.73-6.57,0-.48,0-.95.02-1.41Zm-2.16.82c0-.45.06-.83.16-1.15.09-.34.23-.54.37-.68.1.02.21.05.32.07.13.03.28.05.42.08-.03.72-.05,1.48-.05,2.27,0,.6.02,1.19.05,1.77.02.3.05.59.07.89.02.26.04.53.07.78.04.4.1.78.16,1.16.02.14.04.28.06.42.08.44.16.88.26,1.3,0,.05.02.1.03.15-.07.03-.14.05-.2.05-.35,0-.85-.63-1.18-2.38-.41-2.16-.58-3.65-.53-4.73Z"/>
        <path class="cls-15" d="m39.52,26.79c-.04-5.56-.99-7.96-1.37-8.69-.39.63-.72,1.33-.96,2.09,0,.01,0,.02-.01.03-.11.35-.21.71-.29,1.09,0,.01,0,.02,0,.03-.08.36-.13.73-.17,1.11,0,.07-.02.15-.02.22-.04.38-.06.77-.06,1.18v2.72h.03c.94.09,1.9.16,2.88.22Z"/>
        <path class="cls-15" d="m35.69,79.34c.11,0,.2-.09.2-.2v-.82c0-.11-.09-.2-.2-.2s-.21.09-.21.2v.82c0,.11.09.2.21.2Z"/>
        <path class="cls-15" d="m35.69,77.28c.11,0,.2-.09.2-.21v-.82c0-.11-.09-.21-.2-.21s-.21.09-.21.21v.82c0,.11.09.21.21.21Z"/>
        <path class="cls-15" d="m35.69,75.22c.11,0,.2-.09.2-.21v-.82c0-.11-.09-.21-.2-.21s-.21.09-.21.21v.82c0,.11.09.21.21.21Z"/>
        <path class="cls-15" d="m35.69,71.1c.11,0,.2-.09.2-.2v-.82c0-.11-.09-.2-.2-.2s-.21.09-.21.2v.82c0,.11.09.2.21.2Z"/>
        <path class="cls-15" d="m35.69,73.16c.11,0,.2-.09.2-.21v-.82c0-.11-.09-.2-.2-.2s-.21.09-.21.2v.82c0,.11.09.21.21.21Z"/>
        <path class="cls-15" d="m35.69,69.04c.11,0,.2-.09.2-.21v-.82c0-.11-.09-.21-.2-.21s-.21.09-.21.21v.82c0,.11.09.21.21.21Z"/>
        <path class="cls-15" d="m51.46,65.39h.81c.11,0,.21-.09.21-.2s-.09-.21-.21-.21h-.81c-.11,0-.21.09-.21.21s.09.2.21.2Z"/>
        <path class="cls-15" d="m43.31,65.39h.81c.11,0,.21-.09.21-.2s-.09-.21-.21-.21h-.81c-.11,0-.21.09-.21.21s.09.2.21.2Z"/>
        <path class="cls-15" d="m39.24,65.39h.82c.11,0,.21-.09.21-.2s-.09-.21-.21-.21h-.82c-.11,0-.2.09-.2.21s.09.2.2.2Z"/>
        <path class="cls-15" d="m41.28,65.39h.82c.11,0,.2-.09.2-.2s-.09-.21-.2-.21h-.82c-.11,0-.21.09-.21.21s.09.2.21.2Z"/>
        <path class="cls-15" d="m53.5,65.39h.81c.11,0,.21-.09.21-.2s-.09-.21-.21-.21h-.81c-.11,0-.21.09-.21.21s.09.2.21.2Z"/>
        <path class="cls-15" d="m55.53,65.39h.82c.11,0,.2-.09.2-.2s-.09-.21-.2-.21h-.82c-.11,0-.2.09-.2.21s.09.2.2.2Z"/>
        <path class="cls-15" d="m49.42,65.39h.82c.11,0,.21-.09.21-.2s-.09-.21-.21-.21h-.82c-.11,0-.21.09-.21.21s.09.2.21.2Z"/>
        <path class="cls-15" d="m45.35,65.39h.81c.11,0,.2-.09.2-.2s-.09-.21-.2-.21h-.81c-.11,0-.2.09-.2.21s.09.2.2.2Z"/>
        <path class="cls-15" d="m47.39,65.39h.81c.11,0,.21-.09.21-.2s-.09-.21-.21-.21h-.81c-.11,0-.2.09-.2.21s.09.2.2.2Z"/>
        <path class="cls-15" d="m60.22,80.35c.11,0,.21-.09.21-.21v-.82c0-.11-.09-.21-.21-.21s-.21.09-.21.21v.82c0,.11.09.21.21.21Z"/>
        <path class="cls-15" d="m60.22,76.23c.11,0,.21-.09.21-.21v-.82c0-.11-.09-.2-.21-.2s-.21.09-.21.2v.82c0,.11.09.21.21.21Z"/>
        <path class="cls-15" d="m60.22,67.99c.11,0,.21-.09.21-.21v-.82c0-.11-.09-.2-.21-.2s-.21.09-.21.2v.82c0,.11.09.21.21.21Z"/>
        <path class="cls-15" d="m60.22,74.17c.11,0,.21-.09.21-.21v-.82c0-.11-.09-.21-.21-.21s-.21.09-.21.21v.82c0,.11.09.21.21.21Z"/>
        <path class="cls-15" d="m60.22,78.29c.11,0,.21-.09.21-.2v-.82c0-.11-.09-.21-.21-.21s-.21.09-.21.21v.82c0,.11.09.2.21.2Z"/>
        <path class="cls-15" d="m60.22,70.05c.11,0,.21-.09.21-.21v-.82c0-.11-.09-.21-.21-.21s-.21.09-.21.21v.82c0,.11.09.21.21.21Z"/>
        <path class="cls-15" d="m60.22,72.11c.11,0,.21-.09.21-.21v-.82c0-.11-.09-.2-.21-.2s-.21.09-.21.2v.82c0,.11.09.21.21.21Z"/>
        <path class="cls-15" d="m41.95,79.07h11.51l.85-9.92h-13.21l.85,9.92Zm11.36-9.01l-.69,8.09h-9.83l-.69-8.09h11.21Z"/>
        <path class="cls-15" d="m69.34,80.99v-24.74s-4.27-5.23-4.27-5.23l-2.78-.83-1.09,13.47-.64-.05v-1.36h-3.15v1.11l-.73-.06,1.18-14.6-1.25-.43s-2.63,3.86-8.64,3.86h-.02c-6.01,0-8.64-3.86-8.64-3.86l-1.22.42,1.18,14.61-.73.06v-1.11h-3.15v1.36l-.64.05-1.09-13.48-2.82.84-4.38,5.23v24.74h0v.92h42.87v-.92h0Zm-34.61-16.57h.68v1.72h.18c-.06.04-.1.09-.1.16v.48c0,.11.09.2.21.2s.2-.09.2-.2v-.48c0-.07-.05-.13-.1-.16h2.76v-1.72h18.86v.65s-.05.08-.05.12.02.09.05.12v.82h3.15v-1.72h.62v16.57h-25.29v-.62c0-.11-.09-.2-.2-.2s-.21.09-.21.2v.62h-.76v-16.57Z"/>
      </g>
    </g>
  </g>
</svg>