<?xml version="1.0" encoding="UTF-8"?>
<svg xmlns="http://www.w3.org/2000/svg" viewBox="0 0 99.81 99.81">
  <defs>
    <style>
      .cls-1 {
        fill: #4DA7F7;
      }

      .cls-1, .cls-2, .cls-3, .cls-4, .cls-5, .cls-6, .cls-7, .cls-8, .cls-9, .cls-10, .cls-11, .cls-12, .cls-13, .cls-14, .cls-15, .cls-16, .cls-17, .cls-18, .cls-19, .cls-20, .cls-21, .cls-22, .cls-23, .cls-24, .cls-25, .cls-26, .cls-27, .cls-28, .cls-29, .cls-30, .cls-31, .cls-32, .cls-33 {
        stroke-width: 0px;
      }

      .cls-2 {
        fill: #4DA7F7;
      }

      .cls-3 {
        fill: #4DA7F7;
      }

      .cls-4 {
        fill: #4DA7F7;
      }

      .cls-5 {
        fill: #4DA7F7;
      }

      .cls-34 {
        isolation: isolate;
      }

      .cls-6 {
        fill: #4DA7F7;
      }

      .cls-7 {
        fill: #4DA7F7;
      }

      .cls-8 {
        fill: #4DA7F7;
      }

      .cls-9 {
        fill: #4DA7F7;
      }

      .cls-10 {
        fill: #4DA7F7;
      }

      .cls-11 {
        fill: #4DA7F7;
      }

      .cls-12 {
        fill: #4DA7F7;
      }

      .cls-13 {
        fill: #4DA7F7;
      }

      .cls-14 {
        fill: #4DA7F7;
      }

      .cls-15 {
        fill: #4DA7F7;
      }

      .cls-16 {
        fill: #4DA7F7;
      }

      .cls-17 {
        fill: #4DA7F7;
      }

      .cls-18 {
        fill: #4DA7F7;
      }

      .cls-19 {
        fill: #4DA7F7;
      }

      .cls-20 {
        fill: #4DA7F7;
      }

      .cls-21 {
        fill: #4DA7F7;
      }

      .cls-22 {
        fill: #4DA7F7;
      }

      .cls-23 {
        fill: #222222;
      }

      .cls-24 {
        fill: #4DA7F7;
      }

      .cls-25 {
        fill: #4DA7F7;
      }

      .cls-26 {
        fill: #4DA7F7;
      }

      .cls-27 {
        fill: #4DA7F7;
      }

      .cls-28 {
        fill: #4DA7F7;
      }

      .cls-29 {
        fill: #4DA7F7;
      }

      .cls-30 {
        fill: #4DA7F7;
      }

      .cls-31 {
        fill: #4DA7F7;
      }

      .cls-32 {
        fill: #4DA7F7;
      }

      .cls-35 {
        mix-blend-mode: multiply;
      }

      .cls-33 {
        fill: #4DA7F7;
      }
    </style>
  </defs>
  <g class="cls-34">
    <g id="Layer_1" data-name="Layer 1">
      <g>
        <path class="cls-23" d="m95.97,48.19c0,26.5-21.48,47.99-47.99,47.99S0,74.69,0,48.19,21.48.2,47.99.2s47.99,21.48,47.99,47.99Z"/>
        <g class="cls-35">
          <path class="cls-18" d="m95.97,47.99c0,26.5-21.48,47.99-47.99,47.99S0,74.49,0,47.99,21.48,0,47.99,0s47.99,21.48,47.99,47.99Z"/>
          <path class="cls-1" d="m96.1,48.11c0,26.5-21.48,47.99-47.99,47.99S.12,74.61.12,48.11,21.61.12,48.11.12s47.99,21.48,47.99,47.99Z"/>
          <path class="cls-24" d="m96.22,48.24c0,26.5-21.48,47.99-47.99,47.99S.25,74.74.25,48.24,21.73.25,48.23.25s47.99,21.48,47.99,47.99Z"/>
          <path class="cls-28" d="m96.34,48.36c0,26.5-21.48,47.99-47.99,47.99S.37,74.86.37,48.36,21.86.37,48.36.37s47.99,21.48,47.99,47.99Z"/>
          <path class="cls-25" d="m96.47,48.48c0,26.5-21.48,47.99-47.99,47.99S.5,74.99.5,48.48,21.98.5,48.48.5s47.99,21.48,47.99,47.99Z"/>
          <path class="cls-30" d="m96.59,48.61c0,26.5-21.48,47.99-47.99,47.99S.62,75.11.62,48.61,22.1.62,48.61.62s47.99,21.48,47.99,47.99Z"/>
          <path class="cls-2" d="m96.72,48.73c0,26.5-21.48,47.99-47.99,47.99S.74,75.23.74,48.73,22.23.74,48.73.74s47.99,21.48,47.99,47.99Z"/>
          <path class="cls-22" d="m96.84,48.85c0,26.5-21.48,47.99-47.99,47.99S.87,75.36.87,48.85,22.35.87,48.85.87s47.99,21.48,47.99,47.99Z"/>
          <path class="cls-11" d="m96.96,48.98c0,26.5-21.48,47.99-47.99,47.99S.99,75.48.99,48.98,22.47.99,48.98.99s47.99,21.48,47.99,47.99Z"/>
          <path class="cls-20" d="m97.09,49.1c0,26.5-21.48,47.99-47.99,47.99S1.11,75.61,1.11,49.1,22.6,1.11,49.1,1.11s47.99,21.48,47.99,47.99Z"/>
          <path class="cls-12" d="m97.21,49.23c0,26.5-21.48,47.99-47.99,47.99S1.24,75.73,1.24,49.23,22.72,1.24,49.22,1.24s47.99,21.48,47.99,47.99Z"/>
          <circle class="cls-8" cx="49.35" cy="49.35" r="47.99" transform="translate(-5.67 6.41) rotate(-7.03)"/>
          <circle class="cls-26" cx="49.47" cy="49.47" r="47.99" transform="translate(-4.47 4.92) rotate(-5.44)"/>
          <circle class="cls-4" cx="49.6" cy="49.6" r="47.99" transform="translate(-3.23 3.46) rotate(-3.87)"/>
          <circle class="cls-19" cx="49.72" cy="49.72" r="47.99" transform="translate(-1.96 2.04) rotate(-2.3)"/>
          <circle class="cls-33" cx="49.84" cy="49.85" r="47.99" transform="translate(-.66 .66) rotate(-.76)"/>
          <circle class="cls-21" cx="49.97" cy="49.97" r="47.99" transform="translate(-.65 99.28) rotate(-89.25)"/>
          <circle class="cls-16" cx="50.09" cy="50.09" r="47.99" transform="translate(-1.91 98.21) rotate(-87.78)"/>
          <circle class="cls-27" cx="50.22" cy="50.22" r="47.99" transform="translate(-3.09 97.14) rotate(-86.35)"/>
          <circle class="cls-13" cx="50.34" cy="50.34" r="47.99" transform="translate(-4.22 96.08) rotate(-84.97)"/>
          <circle class="cls-10" cx="50.46" cy="50.46" r="47.99" transform="translate(-5.27 95.04) rotate(-83.65)"/>
          <path class="cls-7" d="m98.57,50.59c0,26.5-21.48,47.99-47.99,47.99S2.6,77.09,2.6,50.59,24.08,2.6,50.59,2.6s47.99,21.48,47.99,47.99Z"/>
          <path class="cls-6" d="m98.7,50.71c0,26.5-21.48,47.99-47.99,47.99S2.72,77.22,2.72,50.71,24.21,2.73,50.71,2.73s47.99,21.48,47.99,47.99Z"/>
          <path class="cls-5" d="m98.82,50.84c0,26.5-21.48,47.99-47.99,47.99S2.85,77.34,2.85,50.84,24.33,2.85,50.84,2.85s47.99,21.48,47.99,47.99Z"/>
          <path class="cls-31" d="m98.95,50.96c0,26.5-21.48,47.99-47.99,47.99S2.97,77.46,2.97,50.96,24.46,2.97,50.96,2.97s47.99,21.48,47.99,47.99Z"/>
          <path class="cls-17" d="m99.07,51.08c0,26.5-21.48,47.99-47.99,47.99S3.1,77.59,3.1,51.08,24.58,3.1,51.08,3.1s47.99,21.48,47.99,47.99Z"/>
          <path class="cls-9" d="m99.19,51.21c0,26.5-21.48,47.99-47.99,47.99S3.22,77.71,3.22,51.21,24.7,3.22,51.21,3.22s47.99,21.48,47.99,47.99Z"/>
          <path class="cls-3" d="m99.32,51.33c0,26.5-21.48,47.99-47.99,47.99S3.34,77.83,3.34,51.33,24.83,3.34,51.33,3.34s47.99,21.48,47.99,47.99Z"/>
          <path class="cls-14" d="m99.44,51.45c0,26.5-21.48,47.99-47.99,47.99S3.47,77.96,3.47,51.45,24.95,3.47,51.45,3.47s47.99,21.48,47.99,47.99Z"/>
          <path class="cls-29" d="m99.56,51.58c0,26.5-21.48,47.99-47.99,47.99S3.59,78.08,3.59,51.58,25.08,3.59,51.58,3.59s47.99,21.48,47.99,47.99Z"/>
          <path class="cls-32" d="m99.69,51.7c0,26.5-21.48,47.99-47.99,47.99S3.71,78.21,3.71,51.7,25.2,3.72,51.7,3.72s47.99,21.48,47.99,47.99Z"/>
          <path class="cls-15" d="m99.81,51.83c0,26.5-21.48,47.99-47.99,47.99S3.84,78.33,3.84,51.83,25.32,3.84,51.83,3.84s47.99,21.48,47.99,47.99Z"/>
        </g>
        <path class="cls-15" d="m79.68,33.52l.09-.44-5.62-2.44c1.82-1.18,3.63-2.7,5.43-4.66h.03v-.05c.07-.06.13-.12.19-.19l-.12-.11.09-.43-7.81-3.39-3.28-5.5h-.47s-.02,0-.02,0h-.2l-.09.15c-10.55,5.89-20.83,4.6-32.14,2.32l-.13-.23h-1.15l-5.46,9.18-13.01,5.66.27,1.28h12.7l.15,6.14-13.11,5.7.27,1.28h13.02l.08,3.1-9.77,30.21,1.27.41,1.89-5.84h24.6l1.89,5.84,1.27-.41-9.77-30.21.08-3.1h13.02l.09-.43c2.74-.49,5.38-1.21,7.93-2.14l-2.79,8.62.76.25,1.13-3.51h14.76l1.13,3.51.76-.25-4.68-14.48c2.27-1.61,4.48-3.44,6.62-5.51h.06v-.07c.07-.05.12-.1.18-.15l-.11-.11Zm-2-.47h-5.86l.03-1.08c.5-.25.99-.51,1.49-.8l4.35,1.89Zm-33.27-2.41c-1.03.22-2.1.43-3.19.62l.05-1.99,3.14,1.37Zm-6.89,1.2l-1.37-.71,3.79-1.95-.06,2.3c-.78.12-1.56.24-2.36.36Zm2.34.15l-.02,1.04-1.55-.8c.53-.08,1.06-.16,1.58-.24Zm-4.09.08c-.63.08-1.26.16-1.89.23l1.17-.6.72.37Zm.78.4l1.99,1.03h-7l1.09-.56c1.32-.14,2.63-.3,3.92-.46Zm2.4,2.03l-3.91,2.59-3.91-2.59h7.81Zm.83.66l-.12,4.99-3.7-2.45,3.83-2.53Zm-.83,5.72h-7.81l3.91-2.59,3.91,2.59Zm-.4,1l-3.5,1.8-3.5-1.8h7.01Zm2.65-10.12c1.37-.24,2.7-.5,3.97-.79l5.43,2.36h-9.45l.04-1.57Zm-6.15-1.2l-3.5-1.8h7l-3.5,1.8Zm-1.1.56l-2.83,1.46c-.29.03-.58.06-.87.08l-.08-3.49,3.79,1.95Zm.19,6.56l-3.7,2.45-.12-4.99,3.83,2.54Zm-.48,6.41c-1,.22-2.04.43-3.11.63l-.05-2.26,3.17,1.63Zm-.67.65l-2.41,1.24-.02-.76c.83-.16,1.63-.32,2.42-.48Zm2.06.07l3.5,1.8h-7.01l3.5-1.8Zm-5.8,1.64h-5.99c2.08-.31,4.07-.63,5.97-.97l.02.97Zm10.15,4.03h-8.72l-.07-2.86h8.86l-.07,2.86Zm-1.19,1l-3.14,1.84-3.18-1.84h6.32Zm1.3-5.5l-3.37-1.74.74-.38c.93-.23,1.83-.46,2.7-.7l-.07,2.82Zm-.66-3.13l.75-.38v.18c-.25.07-.5.14-.75.2Zm2.09-.6h.02s-.02.02-.03.02v-.02Zm.03-1.44l.15-6.14h12.69l.09-.41.77.05c.43.03.88.05,1.32.08-2.53,2.83-6.87,5.25-13.08,7.28l-1.94-.85Zm13.73-7.01l-.7-.04.08-.37-6.78-2.95c4.08-1.1,7.5-2.55,9.74-4.52v.06h7.63l.09,3.69-7.87,3.42.06.3-.11-.08c-.14.2-.29.4-.46.6-.57-.03-1.14-.07-1.7-.1Zm13.08-6.01l-2.22,1.47-.07-3,2.3,1.52Zm-1.8-1.91h4.69l-2.35,1.55-2.34-1.55Zm2.34,2.28l2.35,1.55h-4.69l2.34-1.55Zm-2.1,2.16h4.21l-2.1,1.08-2.1-1.08Zm1.45,1.42l-2.03,1.04-.05-2.11,2.08,1.07Zm1.2-3.94l2.3-1.52-.07,3-2.22-1.47Zm1.56-2.52h-4.21l2.1-1.08,2.1,1.08Zm-1.45-1.42l2.27-1.17-.06,2.31-2.22-1.14Zm-3.53,1.14l-.06-2.31,2.27,1.17-2.21,1.14Zm-.61,8.05h-5.86l5.8-2.52.06,2.52Zm1.38.1l2.1-1.08.9.46c-.66.24-1.33.45-1.99.62h-1.02Zm3.62-.3l.59.3h-1.44c.28-.1.57-.19.85-.3Zm1.17-.07l-.44-.22c.15-.06.3-.12.45-.19v.41Zm-1.03-.53l-1-.52,2.08-1.07-.03,1.13c-.35.16-.7.32-1.05.46Zm1.88-1.71l.87.38c-.3.17-.6.33-.89.48l.02-.86Zm-3.54-7.01l-2.1-1.08h4.21l-2.1,1.08Zm-3.73-.78l.06,2.44h-5.67l5.61-2.44Zm-7.53,11.12h6.19c-2.16.21-4.26.18-6.26.09.02-.03.04-.06.06-.09Zm9.86-.1h4.05l-.04,1.72h-5.23l-.04-1.45c.42-.08.84-.17,1.26-.27Zm3.3,2.32l-1.88,1.11-1.91-1.11h3.79Zm-4.65.2l2.17,1.26-3.18,1.87,1.01-3.12Zm2.67,5.46l-2.92-1.29h5.11c-.72.46-1.46.88-2.19,1.29Zm-4.44,2.72c.87-.37,1.73-.76,2.58-1.18l1.91-.87,4.6,2.04h-9.09Zm8.96.6l-4.42,1.79-4.39-1.79h8.81Zm-1.41-5.22h-6.34l3.33-1.96,3.18,1.84c-.06.04-.12.07-.17.11Zm-7.17.75l3.37,1.5-4.52,2.06,1.15-3.55Zm3.36,6.58l-6.32,2.55,1.46-4.53,4.85,1.97Zm.8.33l6.15,2.5h-12.32l6.18-2.5Zm.8-.32l4.83-1.95,1.45,4.51-6.28-2.55Zm-.12-5.09l3.44-1.56,1.16,3.61-4.6-2.04Zm3.06-2.73l-3.14-1.82,2.15-1.26.99,3.08h0Zm1.5-8.94l-1.7-.74.09-3.69h6.9c-1.75,1.86-3.52,3.31-5.3,4.42Zm-1.59-5.22l.06-2.44,5.61,2.44h-5.67Zm-.97-3.35h-5.4l2.7-4.53,2.7,4.53Zm-19.92-.62c5.47,0,10.84-1.02,16.28-3.89l-2.68,4.49-7.8,3.39.05.25-.06-.07c-2.29,2.1-5.94,3.61-10.32,4.73l-5.49-2.39-4.98-8.37c5.17,1.03,10.13,1.84,15.01,1.84Zm-16.07-1l4.5,7.55h-8.99l4.49-7.55Zm-6.21,9.06l.09,3.53c-2.25.2-4.5.38-6.7.54h-2.74l9.35-4.06Zm-.26,4.06c.12-.01.24-.02.36-.03v.03s-.36,0-.36,0Zm.58,8.92l.07,2.72c-2.97.54-6.17,1.03-9.61,1.48h-.13l9.66-4.2Zm1.32,9.57l3.62,2.1-5.3,3.11,1.69-5.21Zm-2.33,7.19l5.62,2.5-7.54,3.43,1.92-5.92Zm1.91-.25h9.76l-4.82,2.19-4.94-2.19Zm-2.54,6.69l7.48-3.4,7.67,3.4h-15.15Zm14.94,1l-7.36,2.98-7.32-2.98h14.69Zm-16.79.23l8.09,3.29-10.53,4.26,2.44-7.55Zm9.42,3.83l10.24,4.16h-20.53l10.29-4.16Zm1.33-.54l8.03-3.25,2.43,7.5-10.46-4.25Zm-.21-8.48l5.71-2.59,1.94,5.99-7.64-3.39Zm-6.68-3.74l5.55-3.26,5.63,3.26h-11.18Zm11.75-.83l-5.2-3.01,3.55-2.08,1.65,5.1Zm-.44-10.47l.09-3.66c.25-.07.49-.15.74-.22l8.94,3.89h-9.77Zm13.18.37l.07-.32-10.49-4.56c6.23-2.09,10.54-4.6,13.02-7.54,1.05.05,2.12.1,3.22.1,1.63,0,3.32-.09,5.04-.36l.04,1.56-2.88,8.9c-2.58.97-5.24,1.71-8.02,2.22Zm18.74-7.97l-1.02-3.15.04-1.86h7.02c-1.96,1.87-3.97,3.54-6.05,5.01Z"/>
      </g>
    </g>
  </g>
</svg>