<?xml version="1.0" encoding="UTF-8"?>
<svg xmlns="http://www.w3.org/2000/svg" viewBox="0 0 99.81 99.81">
  <defs>
    <style>
      .cls-1 {
        fill: #4DA7F7;
      }

      .cls-1, .cls-2, .cls-3, .cls-4, .cls-5, .cls-6, .cls-7, .cls-8, .cls-9, .cls-10, .cls-11, .cls-12, .cls-13, .cls-14, .cls-15, .cls-16, .cls-17, .cls-18, .cls-19, .cls-20, .cls-21, .cls-22, .cls-23, .cls-24, .cls-25, .cls-26, .cls-27, .cls-28, .cls-29, .cls-30, .cls-31, .cls-32, .cls-33 {
        stroke-width: 0px;
      }

      .cls-2 {
        fill: #4DA7F7;
      }

      .cls-3 {
        fill: #4DA7F7;
      }

      .cls-4 {
        fill: #4DA7F7;
      }

      .cls-5 {
        fill: #4DA7F7;
      }

      .cls-34 {
        isolation: isolate;
      }

      .cls-6 {
        fill: #4DA7F7;
      }

      .cls-7 {
        fill: #4DA7F7;
      }

      .cls-8 {
        fill: #4DA7F7;
      }

      .cls-9 {
        fill: #4DA7F7;
      }

      .cls-10 {
        fill: #4DA7F7;
      }

      .cls-11 {
        fill: #4DA7F7;
      }

      .cls-12 {
        fill: #4DA7F7;
      }

      .cls-13 {
        fill: #4DA7F7;
      }

      .cls-14 {
        fill: #4DA7F7;
      }

      .cls-15 {
        fill: #4DA7F7;
      }

      .cls-16 {
        fill: #4DA7F7;
      }

      .cls-17 {
        fill: #4DA7F7;
      }

      .cls-18 {
        fill: #4DA7F7;
      }

      .cls-19 {
        fill: #4DA7F7;
      }

      .cls-20 {
        fill: #4DA7F7;
      }

      .cls-21 {
        fill: #4DA7F7;
      }

      .cls-22 {
        fill: #4DA7F7;
      }

      .cls-23 {
        fill: #222222;
      }

      .cls-24 {
        fill: #4DA7F7;
      }

      .cls-25 {
        fill: #4DA7F7;
      }

      .cls-26 {
        fill: #4DA7F7;
      }

      .cls-27 {
        fill: #4DA7F7;
      }

      .cls-28 {
        fill: #4DA7F7;
      }

      .cls-29 {
        fill: #4DA7F7;
      }

      .cls-30 {
        fill: #4DA7F7;
      }

      .cls-31 {
        fill: #4DA7F7;
      }

      .cls-32 {
        fill: #4DA7F7;
      }

      .cls-35 {
        mix-blend-mode: multiply;
      }

      .cls-33 {
        fill: #4DA7F7;
      }
    </style>
  </defs>
  <g class="cls-34">
    <g id="Layer_1" data-name="Layer 1">
      <g>
        <path class="cls-23" d="m95.97,48.18c0,26.5-21.48,47.99-47.99,47.99S0,74.69,0,48.18,21.48.2,47.99.2s47.99,21.48,47.99,47.99Z"/>
        <g class="cls-35">
          <path class="cls-18" d="m95.97,47.99c0,26.5-21.48,47.99-47.99,47.99S0,74.49,0,47.99,21.48,0,47.99,0s47.99,21.48,47.99,47.99Z"/>
          <path class="cls-1" d="m96.1,48.11c0,26.5-21.48,47.99-47.99,47.99S.12,74.61.12,48.11,21.61.12,48.11.12s47.99,21.48,47.99,47.99Z"/>
          <path class="cls-24" d="m96.22,48.23c0,26.5-21.48,47.99-47.99,47.99S.25,74.74.25,48.23,21.73.25,48.23.25s47.99,21.48,47.99,47.99Z"/>
          <path class="cls-28" d="m96.35,48.36c0,26.5-21.48,47.99-47.99,47.99S.37,74.86.37,48.36,21.86.37,48.36.37s47.99,21.48,47.99,47.99Z"/>
          <path class="cls-25" d="m96.47,48.48c0,26.5-21.48,47.99-47.99,47.99S.5,74.98.5,48.48,21.98.5,48.48.5s47.99,21.48,47.99,47.99Z"/>
          <path class="cls-30" d="m96.59,48.61c0,26.5-21.48,47.99-47.99,47.99S.62,75.11.62,48.61,22.1.62,48.61.62s47.99,21.48,47.99,47.99Z"/>
          <path class="cls-2" d="m96.72,48.73c0,26.5-21.48,47.99-47.99,47.99S.74,75.23.74,48.73,22.23.74,48.73.74s47.99,21.48,47.99,47.99Z"/>
          <path class="cls-22" d="m96.84,48.85c0,26.5-21.48,47.99-47.99,47.99S.87,75.36.87,48.85,22.35.87,48.85.87s47.99,21.48,47.99,47.99Z"/>
          <path class="cls-11" d="m96.96,48.98c0,26.5-21.48,47.99-47.99,47.99S.99,75.48.99,48.98,22.48.99,48.98.99s47.99,21.48,47.99,47.99Z"/>
          <circle class="cls-20" cx="49.1" cy="49.1" r="47.99" transform="translate(-19.95 56.46) rotate(-51.08)"/>
          <circle class="cls-12" cx="49.23" cy="49.23" r="47.99" transform="translate(-19.08 62.64) rotate(-56.11)"/>
          <circle class="cls-8" cx="49.35" cy="49.35" r="47.99" transform="translate(-17.17 70.48) rotate(-62.62)"/>
          <circle class="cls-26" cx="49.47" cy="49.47" r="47.99" transform="translate(-13.73 79.49) rotate(-70.4)"/>
          <circle class="cls-4" cx="49.6" cy="49.6" r="47.99" transform="translate(-8.87 88.34) rotate(-78.53)"/>
          <circle class="cls-19" cx="49.72" cy="49.72" r="47.99" transform="translate(-3.48 95.7) rotate(-85.83)"/>
          <circle class="cls-33" cx="49.84" cy="49.84" r="47.99" transform="translate(-1.45 1.49) rotate(-1.69)"/>
          <circle class="cls-21" cx="49.97" cy="49.97" r="47.99" transform="translate(-5.06 5.63) rotate(-6.14)"/>
          <circle class="cls-16" cx="50.09" cy="50.09" r="47.99" transform="translate(-7.57 8.94) rotate(-9.49)"/>
          <circle class="cls-27" cx="50.22" cy="50.22" r="47.99" transform="translate(-9.37 11.57) rotate(-12.03)"/>
          <circle class="cls-13" cx="50.34" cy="50.34" r="47.99" transform="translate(-10.69 13.68) rotate(-14)"/>
          <circle class="cls-10" cx="50.46" cy="50.46" r="47.99" transform="translate(-11.69 15.39) rotate(-15.56)"/>
          <circle class="cls-7" cx="50.59" cy="50.59" r="47.99" transform="translate(-12.47 16.8) rotate(-16.82)"/>
          <circle class="cls-6" cx="50.71" cy="50.71" r="47.99" transform="translate(-13.1 17.99) rotate(-17.85)"/>
          <circle class="cls-5" cx="50.84" cy="50.84" r="47.99" transform="translate(-13.62 18.99) rotate(-18.71)"/>
          <circle class="cls-31" cx="50.96" cy="50.96" r="47.99" transform="translate(-14.05 19.86) rotate(-19.43)"/>
          <circle class="cls-17" cx="51.08" cy="51.08" r="47.99" transform="translate(-14.42 20.61) rotate(-20.05)"/>
          <path class="cls-9" d="m99.19,51.21c0,26.5-21.48,47.99-47.99,47.99S3.22,77.71,3.22,51.21,24.7,3.22,51.21,3.22s47.99,21.48,47.99,47.99Z"/>
          <path class="cls-3" d="m99.32,51.33c0,26.5-21.48,47.99-47.99,47.99S3.34,77.83,3.34,51.33,24.83,3.34,51.33,3.34s47.99,21.48,47.99,47.99Z"/>
          <path class="cls-14" d="m99.44,51.45c0,26.5-21.48,47.99-47.99,47.99S3.47,77.96,3.47,51.45,24.95,3.47,51.45,3.47s47.99,21.48,47.99,47.99Z"/>
          <path class="cls-29" d="m99.57,51.58c0,26.5-21.48,47.99-47.99,47.99S3.59,78.08,3.59,51.58,25.08,3.59,51.58,3.59s47.99,21.48,47.99,47.99Z"/>
          <path class="cls-32" d="m99.69,51.7c0,26.5-21.48,47.99-47.99,47.99S3.72,78.21,3.72,51.7,25.2,3.72,51.7,3.72s47.99,21.48,47.99,47.99Z"/>
          <path class="cls-15" d="m99.81,51.83c0,26.5-21.48,47.99-47.99,47.99S3.84,78.33,3.84,51.83,25.32,3.84,51.83,3.84s47.99,21.48,47.99,47.99Z"/>
        </g>
        <path class="cls-15" d="m32.27,40.59h-1.59c-.68,0-.95.39-.95.86v3.97c0,.65.49.86.95.86h1.59c.62,0,.9-.33.9-.86v-3.97c0-.45-.18-.86-.9-.86Z"/>
        <path class="cls-15" d="m35.74,38.36h-8.5v10.12h8.5v-10.12Zm-1.84,7.05c0,1.16-.66,1.58-1.62,1.58h-1.59c-.88,0-1.67-.41-1.67-1.58v-3.97c0-1.05.75-1.58,1.67-1.58h1.59c1.19,0,1.62.74,1.62,1.58v3.97Z"/>
        <path class="cls-15" d="m44.45,48.47v-10.12h-8.5v10.12h8.5Zm-7.01-8.51c.99-.13,1.88-.2,2.96-.2,1.41,0,1.97,1.05,1.97,2.04,0,1.91-2.77,3.98-3.47,4.45h3.47v.72h-4.86v-.66c1.06-.72,4.13-2.92,4.13-4.53,0-.71-.36-1.29-1.25-1.29h-2.95v-.53Z"/>
        <path class="cls-15" d="m48.44,46.26h1.41c.42,0,.86-.23.86-.75v-1.02c0-.55-.41-.79-.83-.79h-1.55c-.45,0-.88.18-.88.79v1.02c0,.48.28.75.99.75Z"/>
        <path class="cls-15" d="m48.33,43h1.55c.71,0,.83-.47.83-.82v-.66c0-.72-.28-.98-.86-.98h-1.42c-.62,0-.99.11-.99.98v.66c0,.65.55.82.88.82Z"/>
        <path class="cls-15" d="m53.16,48.47v-10.12h-8.5v10.12h8.5Zm-6.43-3.94c0-.72.44-.91.83-1.04-.62-.21-.83-.85-.83-1.36v-.63c0-1.3.71-1.68,1.71-1.68h1.42c1.04,0,1.58.49,1.58,1.68v.63c0,.21-.03.98-.73,1.13.52.1.74.86.73,1.27v.95c0,1.26-.96,1.5-1.59,1.5h-1.41c-1.67,0-1.71-1.1-1.71-1.5v-.95Z"/>
        <path class="cls-15" d="m61.87,48.47v-10.12h-8.5v10.12h8.5Zm-6.47-2.22h2.95c.67,0,.88-.48.88-.9v-1.07c0-.32-.01-.91-.88-.91h-1.5c-.38,0-.8.2-.8.73h-.64l.21-4.23h4.1v.72h-3.44l-.12,2.35c.14-.17.41-.25.72-.29.52-.07,1.16,0,1.46,0,1.15,0,1.59.67,1.59,1.61v1.11c0,1.33-.99,1.65-1.59,1.65-1.2,0-1.65,0-2.95-.23v-.54Z"/>
        <path class="cls-15" d="m62.08,48.47h8.5v-10.12h-8.5v10.12Zm4.63-8.61h.86l-2.86,4.54h2.76v-2.01l.36-.73h.36v2.74h.87v.57l-.87.18v1.8h-.72v-1.8h-3.55l-.33-.36,3.12-4.94Z"/>
        <rect class="cls-15" x="34.07" y="31.22" width="30.04" height="4.34"/>
        <path class="cls-15" d="m68.17,49.88l.6,1.66h-4.67v-1.1h-30.4v1.1h-7.31v-1.28h-.53v3.45h.53v-1.28h7.31v1.1h30.4v-1.1h4.67l-.6,1.66c.96-.84,2.52-1.64,3.78-2.1-1.25-.46-2.81-1.26-3.78-2.1Z"/>
        <rect class="cls-15" x="29.1" y="58.16" width="17.3" height="2.72"/>
        <rect class="cls-15" x="51.55" y="58.16" width="17.3" height="2.72"/>
        <path class="cls-15" d="m34.46,63.76c-1.1,0-1.99.89-1.99,1.99s.89,1.99,1.99,1.99,1.99-.89,1.99-1.99-.89-1.99-1.99-1.99Z"/>
        <path class="cls-15" d="m44.21,63.76c-1.1,0-1.99.89-1.99,1.99s.89,1.99,1.99,1.99,1.99-.89,1.99-1.99-.89-1.99-1.99-1.99Z"/>
        <path class="cls-15" d="m53.97,63.76c-1.1,0-1.99.89-1.99,1.99s.89,1.99,1.99,1.99,1.99-.89,1.99-1.99-.89-1.99-1.99-1.99Z"/>
        <path class="cls-15" d="m63.72,63.76c-1.1,0-1.99.89-1.99,1.99s.89,1.99,1.99,1.99,1.99-.89,1.99-1.99-.89-1.99-1.99-1.99Z"/>
        <path class="cls-15" d="m48.91,18.4c-16.58,0-30.07,13.49-30.07,30.07s13.49,30.07,30.07,30.07,30.07-13.49,30.07-30.07-13.49-30.07-30.07-30.07Zm0,59.26c-16.09,0-29.19-13.09-29.19-29.19s13.09-29.19,29.19-29.19,29.19,13.09,29.19,29.19-13.09,29.19-29.19,29.19Z"/>
        <path class="cls-15" d="m48.91,15.97c-17.92,0-32.5,14.58-32.5,32.5s14.58,32.5,32.5,32.5,32.5-14.58,32.5-32.5S66.83,15.97,48.91,15.97Zm0,63.23c-16.97,0-30.73-13.76-30.73-30.73s13.76-30.73,30.73-30.73,30.73,13.76,30.73,30.73-13.76,30.73-30.73,30.73Z"/>
        <path class="cls-15" d="m48.91,28.64c1.79,0,3.24-1.45,3.24-3.24s-1.45-3.24-3.24-3.24-3.24,1.45-3.24,3.24,1.45,3.24,3.24,3.24Zm0-5.38c1.18,0,2.14.96,2.14,2.14s-.96,2.14-2.14,2.14-2.14-.96-2.14-2.14.96-2.14,2.14-2.14Z"/>
      </g>
    </g>
  </g>
</svg>