<?xml version="1.0" encoding="UTF-8"?>
<svg xmlns="http://www.w3.org/2000/svg" viewBox="0 0 99.81 99.81">
  <defs>
    <style>
      .cls-1 {
        fill: #a3a3a3;
      }

      .cls-1, .cls-2, .cls-3, .cls-4, .cls-5, .cls-6, .cls-7, .cls-8, .cls-9, .cls-10, .cls-11, .cls-12, .cls-13, .cls-14, .cls-15, .cls-16, .cls-17, .cls-18, .cls-19, .cls-20, .cls-21, .cls-22, .cls-23, .cls-24, .cls-25, .cls-26, .cls-27, .cls-28, .cls-29, .cls-30, .cls-31, .cls-32, .cls-33 {
        stroke-width: 0px;
      }

      .cls-2 {
        fill: #222222;
      }

      .cls-3 {
        fill: #222222;
      }

      .cls-4 {
        fill: #222222;
      }

      .cls-5 {
        fill: #222222;
      }

      .cls-6 {
        fill: #222222;
      }

      .cls-34 {
        isolation: isolate;
      }

      .cls-7 {
        fill: #e3e3e3;
      }

      .cls-8 {
        fill: #222222;
      }

      .cls-9 {
        fill: #222222;
      }

      .cls-10 {
        fill: #222222;
      }

      .cls-11 {
        fill: #222222;
      }

      .cls-12 {
        fill: #222222;
      }

      .cls-13 {
        fill: #222222;
      }

      .cls-14 {
        fill: #222222;
      }

      .cls-15 {
        fill: #222222;
      }

      .cls-16 {
        fill: #4DA7F7;
      }

      .cls-17 {
        fill: #4DA7F7;
      }

      .cls-18 {
        fill: #4DA7F7;
      }

      .cls-19 {
        fill: #4DA7F7;
      }

      .cls-20 {
        fill: #4DA7F7;
      }

      .cls-21 {
        fill: #4DA7F7;
      }

      .cls-22 {
        fill: #4DA7F7;
      }

      .cls-23 {
        fill: #4DA7F7;
      }

      .cls-24 {
        fill: #4DA7F7;
      }

      .cls-25 {
        fill: #4DA7F7;
      }

      .cls-26 {
        fill: #4DA7F7;
      }

      .cls-27 {
        fill: #4DA7F7;
      }

      .cls-28 {
        fill: #4DA7F7;
      }

      .cls-29 {
        fill: #4DA7F7;
      }

      .cls-30 {
        fill: #4DA7F7;
      }

      .cls-31 {
        fill: #4DA7F7;
      }

      .cls-32 {
        fill: #4DA7F7;
      }

      .cls-35 {
        mix-blend-mode: multiply;
      }

      .cls-33 {
        fill: #4DA7F7;
      }
    </style>
  </defs>
  <g class="cls-34">
    <g id="Layer_1" data-name="Layer 1">
      <g>
        <path class="cls-2" d="m95.97,48.18c0,26.5-21.48,47.99-47.99,47.99S0,74.69,0,48.18,21.48.2,47.99.2s47.99,21.48,47.99,47.99Z"/>
        <g class="cls-35">
          <path class="cls-19" d="m95.97,47.99c0,26.5-21.48,47.99-47.99,47.99S0,74.49,0,47.99,21.48,0,47.99,0s47.99,21.48,47.99,47.99Z"/>
          <path class="cls-1" d="m96.1,48.11c0,26.5-21.48,47.99-47.99,47.99S.12,74.61.12,48.11,21.61.12,48.11.12s47.99,21.48,47.99,47.99Z"/>
          <path class="cls-24" d="m96.22,48.23c0,26.5-21.48,47.99-47.99,47.99S.25,74.74.25,48.23,21.73.25,48.23.25s47.99,21.48,47.99,47.99Z"/>
          <path class="cls-28" d="m96.35,48.36c0,26.5-21.48,47.99-47.99,47.99S.37,74.86.37,48.36,21.86.37,48.36.37s47.99,21.48,47.99,47.99Z"/>
          <path class="cls-25" d="m96.47,48.48c0,26.5-21.48,47.99-47.99,47.99S.5,74.98.5,48.48,21.98.5,48.48.5s47.99,21.48,47.99,47.99Z"/>
          <path class="cls-30" d="m96.59,48.61c0,26.5-21.48,47.99-47.99,47.99S.62,75.11.62,48.61,22.1.62,48.61.62s47.99,21.48,47.99,47.99Z"/>
          <path class="cls-3" d="m96.72,48.73c0,26.5-21.48,47.99-47.99,47.99S.74,75.23.74,48.73,22.23.74,48.73.74s47.99,21.48,47.99,47.99Z"/>
          <path class="cls-23" d="m96.84,48.85c0,26.5-21.48,47.99-47.99,47.99S.87,75.36.87,48.85,22.35.87,48.85.87s47.99,21.48,47.99,47.99Z"/>
          <path class="cls-12" d="m96.96,48.98c0,26.5-21.48,47.99-47.99,47.99S.99,75.48.99,48.98,22.48.99,48.98.99s47.99,21.48,47.99,47.99Z"/>
          <path class="cls-21" d="m97.09,49.1c0,26.5-21.48,47.99-47.99,47.99S1.11,75.6,1.11,49.1,22.6,1.11,49.1,1.11s47.99,21.48,47.99,47.99Z"/>
          <path class="cls-13" d="m97.21,49.23c0,26.5-21.48,47.99-47.99,47.99S1.24,75.73,1.24,49.23,22.72,1.24,49.22,1.24s47.99,21.48,47.99,47.99Z"/>
          <path class="cls-9" d="m97.34,49.35c0,26.5-21.48,47.99-47.99,47.99S1.36,75.85,1.36,49.35,22.85,1.36,49.35,1.36s47.99,21.48,47.99,47.99Z"/>
          <path class="cls-26" d="m97.46,49.47c0,26.5-21.48,47.99-47.99,47.99S1.49,75.98,1.49,49.47,22.97,1.49,49.47,1.49s47.99,21.48,47.99,47.99Z"/>
          <path class="cls-5" d="m97.58,49.6c0,26.5-21.48,47.99-47.99,47.99S1.61,76.1,1.61,49.6,23.09,1.61,49.6,1.61s47.99,21.48,47.99,47.99Z"/>
          <path class="cls-20" d="m97.71,49.72c0,26.5-21.48,47.99-47.99,47.99S1.73,76.22,1.73,49.72,23.22,1.73,49.72,1.73s47.99,21.48,47.99,47.99Z"/>
          <path class="cls-33" d="m97.83,49.84c0,26.5-21.48,47.99-47.99,47.99S1.86,76.35,1.86,49.84,23.34,1.86,49.84,1.86s47.99,21.48,47.99,47.99Z"/>
          <path class="cls-22" d="m97.96,49.97c0,26.5-21.48,47.99-47.99,47.99S1.98,76.47,1.98,49.97,23.47,1.98,49.97,1.98s47.99,21.48,47.99,47.99Z"/>
          <path class="cls-17" d="m98.08,50.09c0,26.5-21.48,47.99-47.99,47.99S2.11,76.59,2.11,50.09,23.59,2.11,50.09,2.11s47.99,21.48,47.99,47.99Z"/>
          <path class="cls-27" d="m98.2,50.22c0,26.5-21.48,47.99-47.99,47.99S2.23,76.72,2.23,50.22,23.71,2.23,50.22,2.23s47.99,21.48,47.99,47.99Z"/>
          <path class="cls-14" d="m98.33,50.34c0,26.5-21.48,47.99-47.99,47.99S2.35,76.84,2.35,50.34,23.84,2.35,50.34,2.35s47.99,21.48,47.99,47.99Z"/>
          <path class="cls-11" d="m98.45,50.46c0,26.5-21.48,47.99-47.99,47.99S2.48,76.97,2.48,50.46,23.96,2.48,50.46,2.48s47.99,21.48,47.99,47.99Z"/>
          <path class="cls-8" d="m98.57,50.59c0,26.5-21.48,47.99-47.99,47.99S2.6,77.09,2.6,50.59,24.09,2.6,50.59,2.6s47.99,21.48,47.99,47.99Z"/>
          <path class="cls-7" d="m98.7,50.71c0,26.5-21.48,47.99-47.99,47.99S2.73,77.21,2.73,50.71,24.21,2.73,50.71,2.73s47.99,21.48,47.99,47.99Z"/>
          <path class="cls-6" d="m98.82,50.84c0,26.5-21.48,47.99-47.99,47.99S2.85,77.34,2.85,50.84,24.33,2.85,50.84,2.85s47.99,21.48,47.99,47.99Z"/>
          <path class="cls-31" d="m98.95,50.96c0,26.5-21.48,47.99-47.99,47.99S2.97,77.46,2.97,50.96,24.46,2.97,50.96,2.97s47.99,21.48,47.99,47.99Z"/>
          <path class="cls-18" d="m99.07,51.08c0,26.5-21.48,47.99-47.99,47.99S3.1,77.59,3.1,51.08,24.58,3.1,51.08,3.1s47.99,21.48,47.99,47.99Z"/>
          <path class="cls-10" d="m99.19,51.21c0,26.5-21.48,47.99-47.99,47.99S3.22,77.71,3.22,51.21,24.7,3.22,51.21,3.22s47.99,21.48,47.99,47.99Z"/>
          <path class="cls-4" d="m99.32,51.33c0,26.5-21.48,47.99-47.99,47.99S3.34,77.83,3.34,51.33,24.83,3.34,51.33,3.34s47.99,21.48,47.99,47.99Z"/>
          <path class="cls-15" d="m99.44,51.45c0,26.5-21.48,47.99-47.99,47.99S3.47,77.96,3.47,51.45,24.95,3.47,51.45,3.47s47.99,21.48,47.99,47.99Z"/>
          <path class="cls-29" d="m99.57,51.58c0,26.5-21.48,47.99-47.99,47.99S3.59,78.08,3.59,51.58,25.08,3.59,51.58,3.59s47.99,21.48,47.99,47.99Z"/>
          <path class="cls-32" d="m99.69,51.7c0,26.5-21.48,47.99-47.99,47.99S3.72,78.21,3.72,51.7,25.2,3.72,51.7,3.72s47.99,21.48,47.99,47.99Z"/>
          <path class="cls-16" d="m99.81,51.83c0,26.5-21.48,47.99-47.99,47.99S3.84,78.33,3.84,51.83,25.32,3.84,51.83,3.84s47.99,21.48,47.99,47.99Z"/>
        </g>
        <path class="cls-16" d="m48.91,14.91c-11.01,0-19.98,8.96-19.98,19.98,0,8.31,3.23,12.74,6.35,17.02,2.88,3.95,5.6,7.69,5.6,14.28v.49c-1.56.76-2.65,2.36-2.65,4.2v9.34c0,2.58,2.11,4.69,4.69,4.69h12.12c2.58,0,4.69-2.11,4.69-4.69v-9.34c0-2.12-1.44-3.91-3.39-4.48v-.21c0-6.59,2.72-10.33,5.6-14.29,1.7-2.33,3.46-4.75,4.67-7.78,1.51-2.89,2.28-6,2.28-9.24,0-11.02-8.96-19.98-19.98-19.98Zm-1.54,29.85c.12.06.23.08.36.08.44,0,.89-.33,1.22-.6.28-.24.51-.58.73-.9.24-.35.49-.72.74-.85.08-.05.13-.06.13-.06.05.04.14.18.21.29.09.14.19.3.33.45.52.61.96.92,1.83.81.67-.08,1.41-.28,2.14-.53-1.67,5-4.23,14.02-4.28,22.24h-4.03c-.06-8.48-2.79-17.82-4.44-22.71.86-.64,1.68-1.24,2.61-1.74.11-.06.22-.13.36-.21.33-.2.94-.58,1.16-.44.09.06.25.32.32,1.38.02.21.01.45,0,.69-.01.9-.02,1.82.6,2.12Zm11.15,37.66h-19.1v-1.88h19.1v1.88Zm0-3.93h-19.1v-1.87h19.1v1.87Zm0-3.92h-19.1v-1.88h19.1v1.88Zm0-5.8v1.87h-19.1v-1.87h19.1Zm7.16-25.08c-1.19,2.96-2.9,5.32-4.57,7.6-2.78,3.82-5.65,7.76-5.79,14.38h-3.12c.06-8.7,3.01-18.37,4.59-22.93.99-.46,1.91-.98,2.59-1.46l-.55-.77c-.44.31-1,.64-1.59.96.32-.87.52-1.37.53-1.4l-1.3-.53s-.42,1.05-1.01,2.74c-.92.36-1.85.64-2.65.75-.45.06-.61-.02-1-.48-.1-.12-.18-.24-.26-.35-.23-.35-.67-1.01-1.57-.54-.46.25-.77.7-1.08,1.15-.19.28-.38.55-.56.71-.35.29-.52.36-.55.39-.1-.2-.09-.88-.09-1.26,0-.27,0-.54,0-.79-.03-.58-.1-1.66-.74-2.08-.71-.46-1.58.07-2.16.42-.12.07-.22.14-.3.19-.91.49-1.72,1.06-2.49,1.64-.54-1.54-.9-2.45-.92-2.49l-1.31.53s.43,1.08,1.03,2.81c-.24.17-.47.35-.72.51l.53.78c.17-.12.34-.24.51-.36,1.63,4.89,4.17,13.79,4.23,21.85h-3.44c-.14-6.61-3.01-10.56-5.79-14.37-3.03-4.15-6.16-8.45-6.16-16.42,0-10.45,8.5-18.95,18.95-18.95s18.95,8.5,18.95,18.95c0,3.07-.73,6.02-2.18,8.81Z"/>
      </g>
    </g>
  </g>
</svg>