<?xml version="1.0" encoding="UTF-8"?>
<svg xmlns="http://www.w3.org/2000/svg" viewBox="0 0 99.81 99.81">
  <defs>
    <style>
      .cls-1 {
        fill: #4DA7F7;
      }

      .cls-1, .cls-2, .cls-3, .cls-4, .cls-5, .cls-6, .cls-7, .cls-8, .cls-9, .cls-10, .cls-11, .cls-12, .cls-13, .cls-14, .cls-15, .cls-16, .cls-17, .cls-18, .cls-19, .cls-20, .cls-21, .cls-22, .cls-23, .cls-24, .cls-25, .cls-26, .cls-27, .cls-28, .cls-29, .cls-30, .cls-31, .cls-32, .cls-33 {
        stroke-width: 0px;
      }

      .cls-2 {
        fill: #222222;
      }

      .cls-3 {
        fill: #4DA7F7;
      }

      .cls-4 {
        fill: #4DA7F7;
      }

      .cls-5 {
        fill: #4DA7F7;
      }

      .cls-6 {
        fill: #4DA7F7;
      }

      .cls-34 {
        isolation: isolate;
      }

      .cls-7 {
        fill: #4DA7F7;
      }

      .cls-8 {
        fill: #4DA7F7;
      }

      .cls-9 {
        fill: #4DA7F7;
      }

      .cls-10 {
        fill: #4DA7F7;
      }

      .cls-11 {
        fill: #4DA7F7;
      }

      .cls-12 {
        fill: #4DA7F7;
      }

      .cls-13 {
        fill: #4DA7F7;
      }

      .cls-14 {
        fill: #4DA7F7;
      }

      .cls-15 {
        fill: #4DA7F7;
      }

      .cls-16 {
        fill: #4DA7F7;
      }

      .cls-17 {
        fill: #4DA7F7;
      }

      .cls-18 {
        fill: #4DA7F7;
      }

      .cls-19 {
        fill: #4DA7F7;
      }

      .cls-20 {
        fill: #4DA7F7;
      }

      .cls-21 {
        fill: #4DA7F7;
      }

      .cls-22 {
        fill: #4DA7F7;
      }

      .cls-23 {
        fill: #4DA7F7;
      }

      .cls-24 {
        fill: #4DA7F7;
      }

      .cls-25 {
        fill: #4DA7F7;
      }

      .cls-26 {
        fill: #4DA7F7;
      }

      .cls-27 {
        fill: #4DA7F7;
      }

      .cls-28 {
        fill: #4DA7F7;
      }

      .cls-29 {
        fill: #4DA7F7;
      }

      .cls-30 {
        fill: #4DA7F7;
      }

      .cls-31 {
        fill: #4DA7F7;
      }

      .cls-32 {
        fill: #4DA7F7;
      }

      .cls-35 {
        mix-blend-mode: multiply;
      }

      .cls-33 {
        fill: #4DA7F7;
      }
    </style>
  </defs>
  <g class="cls-34">
    <g id="Layer_1" data-name="Layer 1">
      <g>
        <path class="cls-2" d="m95.97,48.18c0,26.5-21.48,47.99-47.99,47.99S0,74.69,0,48.18,21.48.2,47.99.2s47.99,21.48,47.99,47.99Z"/>
        <g class="cls-35">
          <path class="cls-19" d="m95.97,47.99c0,26.5-21.48,47.99-47.99,47.99S0,74.49,0,47.99,21.48,0,47.99,0s47.99,21.48,47.99,47.99Z"/>
          <path class="cls-1" d="m96.1,48.11c0,26.5-21.48,47.99-47.99,47.99S.12,74.61.12,48.11,21.61.12,48.11.12s47.99,21.48,47.99,47.99Z"/>
          <path class="cls-24" d="m96.22,48.23c0,26.5-21.48,47.99-47.99,47.99S.25,74.74.25,48.23,21.73.25,48.23.25s47.99,21.48,47.99,47.99Z"/>
          <path class="cls-28" d="m96.35,48.36c0,26.5-21.48,47.99-47.99,47.99S.37,74.86.37,48.36,21.86.37,48.36.37s47.99,21.48,47.99,47.99Z"/>
          <path class="cls-25" d="m96.47,48.48c0,26.5-21.48,47.99-47.99,47.99S.5,74.98.5,48.48,21.98.5,48.48.5s47.99,21.48,47.99,47.99Z"/>
          <path class="cls-30" d="m96.59,48.61c0,26.5-21.48,47.99-47.99,47.99S.62,75.11.62,48.61,22.1.62,48.61.62s47.99,21.48,47.99,47.99Z"/>
          <path class="cls-3" d="m96.72,48.73c0,26.5-21.48,47.99-47.99,47.99S.74,75.23.74,48.73,22.23.74,48.73.74s47.99,21.48,47.99,47.99Z"/>
          <path class="cls-23" d="m96.84,48.85c0,26.5-21.48,47.99-47.99,47.99S.87,75.36.87,48.85,22.35.87,48.85.87s47.99,21.48,47.99,47.99Z"/>
          <path class="cls-12" d="m96.96,48.98c0,26.5-21.48,47.99-47.99,47.99S.99,75.48.99,48.98,22.48.99,48.98.99s47.99,21.48,47.99,47.99Z"/>
          <path class="cls-21" d="m97.09,49.1c0,26.5-21.48,47.99-47.99,47.99S1.11,75.6,1.11,49.1,22.6,1.11,49.1,1.11s47.99,21.48,47.99,47.99Z"/>
          <path class="cls-13" d="m97.21,49.23c0,26.5-21.48,47.99-47.99,47.99S1.24,75.73,1.24,49.23,22.72,1.24,49.22,1.24s47.99,21.48,47.99,47.99Z"/>
          <path class="cls-9" d="m97.34,49.35c0,26.5-21.48,47.99-47.99,47.99S1.36,75.85,1.36,49.35,22.85,1.36,49.35,1.36s47.99,21.48,47.99,47.99Z"/>
          <path class="cls-26" d="m97.46,49.47c0,26.5-21.48,47.99-47.99,47.99S1.49,75.98,1.49,49.47,22.97,1.49,49.47,1.49s47.99,21.48,47.99,47.99Z"/>
          <path class="cls-5" d="m97.58,49.6c0,26.5-21.48,47.99-47.99,47.99S1.61,76.1,1.61,49.6,23.09,1.61,49.6,1.61s47.99,21.48,47.99,47.99Z"/>
          <path class="cls-20" d="m97.71,49.72c0,26.5-21.48,47.99-47.99,47.99S1.73,76.22,1.73,49.72,23.22,1.73,49.72,1.73s47.99,21.48,47.99,47.99Z"/>
          <path class="cls-33" d="m97.83,49.84c0,26.5-21.48,47.99-47.99,47.99S1.86,76.35,1.86,49.84,23.34,1.86,49.84,1.86s47.99,21.48,47.99,47.99Z"/>
          <path class="cls-22" d="m97.96,49.97c0,26.5-21.48,47.99-47.99,47.99S1.98,76.47,1.98,49.97,23.47,1.98,49.97,1.98s47.99,21.48,47.99,47.99Z"/>
          <path class="cls-17" d="m98.08,50.09c0,26.5-21.48,47.99-47.99,47.99S2.11,76.59,2.11,50.09,23.59,2.11,50.09,2.11s47.99,21.48,47.99,47.99Z"/>
          <path class="cls-27" d="m98.2,50.22c0,26.5-21.48,47.99-47.99,47.99S2.23,76.72,2.23,50.22,23.71,2.23,50.22,2.23s47.99,21.48,47.99,47.99Z"/>
          <path class="cls-14" d="m98.33,50.34c0,26.5-21.48,47.99-47.99,47.99S2.35,76.84,2.35,50.34,23.84,2.35,50.34,2.35s47.99,21.48,47.99,47.99Z"/>
          <path class="cls-11" d="m98.45,50.46c0,26.5-21.48,47.99-47.99,47.99S2.48,76.97,2.48,50.46,23.96,2.48,50.46,2.48s47.99,21.48,47.99,47.99Z"/>
          <path class="cls-8" d="m98.57,50.59c0,26.5-21.48,47.99-47.99,47.99S2.6,77.09,2.6,50.59,24.09,2.6,50.59,2.6s47.99,21.48,47.99,47.99Z"/>
          <path class="cls-7" d="m98.7,50.71c0,26.5-21.48,47.99-47.99,47.99S2.73,77.21,2.73,50.71,24.21,2.73,50.71,2.73s47.99,21.48,47.99,47.99Z"/>
          <path class="cls-6" d="m98.82,50.84c0,26.5-21.48,47.99-47.99,47.99S2.85,77.34,2.85,50.84,24.33,2.85,50.84,2.85s47.99,21.48,47.99,47.99Z"/>
          <path class="cls-31" d="m98.95,50.96c0,26.5-21.48,47.99-47.99,47.99S2.97,77.46,2.97,50.96,24.46,2.97,50.96,2.97s47.99,21.48,47.99,47.99Z"/>
          <path class="cls-18" d="m99.07,51.08c0,26.5-21.48,47.99-47.99,47.99S3.1,77.59,3.1,51.08,24.58,3.1,51.08,3.1s47.99,21.48,47.99,47.99Z"/>
          <path class="cls-10" d="m99.19,51.21c0,26.5-21.48,47.99-47.99,47.99S3.22,77.71,3.22,51.21,24.7,3.22,51.21,3.22s47.99,21.48,47.99,47.99Z"/>
          <path class="cls-4" d="m99.32,51.33c0,26.5-21.48,47.99-47.99,47.99S3.34,77.83,3.34,51.33,24.83,3.34,51.33,3.34s47.99,21.48,47.99,47.99Z"/>
          <path class="cls-15" d="m99.44,51.45c0,26.5-21.48,47.99-47.99,47.99S3.47,77.96,3.47,51.45,24.95,3.47,51.45,3.47s47.99,21.48,47.99,47.99Z"/>
          <path class="cls-29" d="m99.57,51.58c0,26.5-21.48,47.99-47.99,47.99S3.59,78.08,3.59,51.58,25.08,3.59,51.58,3.59s47.99,21.48,47.99,47.99Z"/>
          <path class="cls-32" d="m99.69,51.7c0,26.5-21.48,47.99-47.99,47.99S3.72,78.21,3.72,51.7,25.2,3.72,51.7,3.72s47.99,21.48,47.99,47.99Z"/>
          <path class="cls-16" d="m99.81,51.83c0,26.5-21.48,47.99-47.99,47.99S3.84,78.33,3.84,51.83,25.32,3.84,51.83,3.84s47.99,21.48,47.99,47.99Z"/>
        </g>
        <polygon class="cls-16" points="59.62 45.78 44.41 45.74 68.53 14.91 50.82 14.91 31.83 47.65 27.86 54.5 35.46 54.48 51.53 54.44 31.1 84.91 62.97 52.84 69.95 45.81 59.62 45.78"/>
      </g>
    </g>
  </g>
</svg>