<?xml version="1.0" encoding="UTF-8"?>
<svg xmlns="http://www.w3.org/2000/svg" viewBox="0 0 99.81 99.81">
  <defs>
    <style>
      .cls-1 {
        fill: #a3a3a3;
      }

      .cls-1, .cls-2, .cls-3, .cls-4, .cls-5, .cls-6, .cls-7, .cls-8, .cls-9, .cls-10, .cls-11, .cls-12, .cls-13, .cls-14, .cls-15, .cls-16, .cls-17, .cls-18, .cls-19, .cls-20, .cls-21, .cls-22, .cls-23, .cls-24, .cls-25, .cls-26, .cls-27, .cls-28, .cls-29, .cls-30, .cls-31, .cls-32, .cls-33 {
        stroke-width: 0px;
      }

      .cls-2 {
        fill: #1e6478;
      }

      .cls-3 {
        fill: #b2b2b2;
      }

      .cls-4 {
        fill: #f3f3f3;
      }

      .cls-5 {
        fill: #c8c8c8;
      }

      .cls-6 {
        fill: #e6e6e6;
      }

      .cls-34 {
        isolation: isolate;
      }

      .cls-7 {
        fill: #e3e3e3;
      }

      .cls-8 {
        fill: #e0e0e0;
      }

      .cls-9 {
        fill: #c2c2c2;
      }

      .cls-10 {
        fill: #f0f0f0;
      }

      .cls-11 {
        fill: #ddd;
      }

      .cls-12 {
        fill: #b9b9b9;
      }

      .cls-13 {
        fill: #bfbfbf;
      }

      .cls-14 {
        fill: #dadada;
      }

      .cls-15 {
        fill: #f6f6f6;
      }

      .cls-16 {
        fill: #fff;
      }

      .cls-17 {
        fill: #d4d4d4;
      }

      .cls-18 {
        fill: #ededed;
      }

      .cls-19 {
        fill: #a0a0a0;
      }

      .cls-20 {
        fill: #cbcbcb;
      }

      .cls-21 {
        fill: #bcbcbc;
      }

      .cls-22 {
        fill: #d1d1d1;
      }

      .cls-23 {
        fill: #b5b5b5;
      }

      .cls-24 {
        fill: #a6a6a6;
      }

      .cls-25 {
        fill: #acacac;
      }

      .cls-26 {
        fill: #c5c5c5;
      }

      .cls-27 {
        fill: #d7d7d7;
      }

      .cls-28 {
        fill: #a9a9a9;
      }

      .cls-29 {
        fill: #f9f9f9;
      }

      .cls-30 {
        fill: #afafaf;
      }

      .cls-31 {
        fill: #eaeaea;
      }

      .cls-32 {
        fill: #fcfcfc;
      }

      .cls-35 {
        mix-blend-mode: multiply;
      }

      .cls-33 {
        fill: #cecece;
      }
    </style>
  </defs>
  <g class="cls-34">
    <g id="Layer_1" data-name="Layer 1">
      <g>
        <path class="cls-2" d="m95.97,48.18c0,26.5-21.48,47.99-47.99,47.99S0,74.69,0,48.18,21.48.2,47.99.2s47.99,21.48,47.99,47.99Z"/>
        <g class="cls-35">
          <path class="cls-19" d="m95.97,47.99c0,26.5-21.48,47.99-47.99,47.99S0,74.49,0,47.99,21.48,0,47.99,0s47.99,21.48,47.99,47.99Z"/>
          <path class="cls-1" d="m96.1,48.11c0,26.5-21.48,47.99-47.99,47.99S.12,74.61.12,48.11,21.61.12,48.11.12s47.99,21.48,47.99,47.99Z"/>
          <path class="cls-24" d="m96.22,48.23c0,26.5-21.48,47.99-47.99,47.99S.25,74.74.25,48.23,21.73.25,48.23.25s47.99,21.48,47.99,47.99Z"/>
          <path class="cls-28" d="m96.35,48.36c0,26.5-21.48,47.99-47.99,47.99S.37,74.86.37,48.36,21.86.37,48.36.37s47.99,21.48,47.99,47.99Z"/>
          <path class="cls-25" d="m96.47,48.48c0,26.5-21.48,47.99-47.99,47.99S.5,74.98.5,48.48,21.98.5,48.48.5s47.99,21.48,47.99,47.99Z"/>
          <path class="cls-30" d="m96.59,48.61c0,26.5-21.48,47.99-47.99,47.99S.62,75.11.62,48.61,22.1.62,48.61.62s47.99,21.48,47.99,47.99Z"/>
          <path class="cls-3" d="m96.72,48.73c0,26.5-21.48,47.99-47.99,47.99S.74,75.23.74,48.73,22.23.74,48.73.74s47.99,21.48,47.99,47.99Z"/>
          <path class="cls-23" d="m96.84,48.85c0,26.5-21.48,47.99-47.99,47.99S.87,75.36.87,48.85,22.35.87,48.85.87s47.99,21.48,47.99,47.99Z"/>
          <path class="cls-12" d="m96.96,48.98c0,26.5-21.48,47.99-47.99,47.99S.99,75.48.99,48.98,22.48.99,48.98.99s47.99,21.48,47.99,47.99Z"/>
          <path class="cls-21" d="m97.09,49.1c0,26.5-21.48,47.99-47.99,47.99S1.11,75.6,1.11,49.1,22.6,1.11,49.1,1.11s47.99,21.48,47.99,47.99Z"/>
          <path class="cls-13" d="m97.21,49.23c0,26.5-21.48,47.99-47.99,47.99S1.24,75.73,1.24,49.23,22.72,1.24,49.22,1.24s47.99,21.48,47.99,47.99Z"/>
          <path class="cls-9" d="m97.34,49.35c0,26.5-21.48,47.99-47.99,47.99S1.36,75.85,1.36,49.35,22.85,1.36,49.35,1.36s47.99,21.48,47.99,47.99Z"/>
          <path class="cls-26" d="m97.46,49.47c0,26.5-21.48,47.99-47.99,47.99S1.49,75.98,1.49,49.47,22.97,1.49,49.47,1.49s47.99,21.48,47.99,47.99Z"/>
          <path class="cls-5" d="m97.58,49.6c0,26.5-21.48,47.99-47.99,47.99S1.61,76.1,1.61,49.6,23.09,1.61,49.6,1.61s47.99,21.48,47.99,47.99Z"/>
          <path class="cls-20" d="m97.71,49.72c0,26.5-21.48,47.99-47.99,47.99S1.73,76.22,1.73,49.72,23.22,1.73,49.72,1.73s47.99,21.48,47.99,47.99Z"/>
          <path class="cls-33" d="m97.83,49.84c0,26.5-21.48,47.99-47.99,47.99S1.86,76.35,1.86,49.84,23.34,1.86,49.84,1.86s47.99,21.48,47.99,47.99Z"/>
          <path class="cls-22" d="m97.96,49.97c0,26.5-21.48,47.99-47.99,47.99S1.98,76.47,1.98,49.97,23.47,1.98,49.97,1.98s47.99,21.48,47.99,47.99Z"/>
          <path class="cls-17" d="m98.08,50.09c0,26.5-21.48,47.99-47.99,47.99S2.11,76.59,2.11,50.09,23.59,2.11,50.09,2.11s47.99,21.48,47.99,47.99Z"/>
          <path class="cls-27" d="m98.2,50.22c0,26.5-21.48,47.99-47.99,47.99S2.23,76.72,2.23,50.22,23.71,2.23,50.22,2.23s47.99,21.48,47.99,47.99Z"/>
          <path class="cls-14" d="m98.33,50.34c0,26.5-21.48,47.99-47.99,47.99S2.35,76.84,2.35,50.34,23.84,2.35,50.34,2.35s47.99,21.48,47.99,47.99Z"/>
          <path class="cls-11" d="m98.45,50.46c0,26.5-21.48,47.99-47.99,47.99S2.48,76.97,2.48,50.46,23.96,2.48,50.46,2.48s47.99,21.48,47.99,47.99Z"/>
          <path class="cls-8" d="m98.57,50.59c0,26.5-21.48,47.99-47.99,47.99S2.6,77.09,2.6,50.59,24.09,2.6,50.59,2.6s47.99,21.48,47.99,47.99Z"/>
          <path class="cls-7" d="m98.7,50.71c0,26.5-21.48,47.99-47.99,47.99S2.73,77.21,2.73,50.71,24.21,2.73,50.71,2.73s47.99,21.48,47.99,47.99Z"/>
          <path class="cls-6" d="m98.82,50.84c0,26.5-21.48,47.99-47.99,47.99S2.85,77.34,2.85,50.84,24.33,2.85,50.84,2.85s47.99,21.48,47.99,47.99Z"/>
          <path class="cls-31" d="m98.95,50.96c0,26.5-21.48,47.99-47.99,47.99S2.97,77.46,2.97,50.96,24.46,2.97,50.96,2.97s47.99,21.48,47.99,47.99Z"/>
          <path class="cls-18" d="m99.07,51.08c0,26.5-21.48,47.99-47.99,47.99S3.1,77.59,3.1,51.08,24.58,3.1,51.08,3.1s47.99,21.48,47.99,47.99Z"/>
          <path class="cls-10" d="m99.19,51.21c0,26.5-21.48,47.99-47.99,47.99S3.22,77.71,3.22,51.21,24.7,3.22,51.21,3.22s47.99,21.48,47.99,47.99Z"/>
          <path class="cls-4" d="m99.32,51.33c0,26.5-21.48,47.99-47.99,47.99S3.34,77.83,3.34,51.33,24.83,3.34,51.33,3.34s47.99,21.48,47.99,47.99Z"/>
          <path class="cls-15" d="m99.44,51.45c0,26.5-21.48,47.99-47.99,47.99S3.47,77.96,3.47,51.45,24.95,3.47,51.45,3.47s47.99,21.48,47.99,47.99Z"/>
          <path class="cls-29" d="m99.57,51.58c0,26.5-21.48,47.99-47.99,47.99S3.59,78.08,3.59,51.58,25.08,3.59,51.58,3.59s47.99,21.48,47.99,47.99Z"/>
          <path class="cls-32" d="m99.69,51.7c0,26.5-21.48,47.99-47.99,47.99S3.72,78.21,3.72,51.7,25.2,3.72,51.7,3.72s47.99,21.48,47.99,47.99Z"/>
          <path class="cls-16" d="m99.81,51.83c0,26.5-21.48,47.99-47.99,47.99S3.84,78.33,3.84,51.83,25.32,3.84,51.83,3.84s47.99,21.48,47.99,47.99Z"/>
        </g>
        <path class="cls-16" d="m80.18,54.38c-.92-.67-1.99-1.45-3.15-2.27-1.15-.83-2.41-1.67-3.65-2.53-.62-.43-1.23-.88-1.83-1.33-.6-.45-1.19-.88-1.79-1.24-.61-.36-1.22-.66-1.82-.91-.6-.26-1.18-.48-1.72-.66-.47-.16-.92-.29-1.33-.4-.08.75-.47,1.4-1.04,1.83.3.3.63.62,1,.95.43.38.91.77,1.44,1.16.52.39,1.09.78,1.7,1.12.62.34,1.29.64,1.98.93.69.29,1.38.59,2.06.92,1.37.65,2.72,1.32,4.01,1.9,1.29.6,2.5,1.13,3.54,1.6,2.08.92,3.49,1.49,3.49,1.49l.17-.3s-1.2-.93-3.04-2.27Z"/>
        <path class="cls-16" d="m60.84,40.98c.09.48.2.92.31,1.33.33-.15.7-.23,1.08-.23s.72.08,1.04.21c.11-.4.22-.83.31-1.31.12-.56.22-1.18.29-1.82.08-.65.13-1.33.13-2.03,0-.71-.08-1.44-.17-2.18-.09-.74-.17-1.49-.23-2.25-.12-1.51-.21-3.01-.35-4.42-.12-1.41-.26-2.73-.38-3.86-.24-2.26-.44-3.77-.44-3.77h-.34s-.21,1.5-.46,3.76c-.12,1.13-.27,2.45-.4,3.86-.15,1.41-.25,2.92-.37,4.42-.06.75-.14,1.51-.24,2.25-.09.74-.17,1.47-.18,2.18,0,.71.04,1.39.12,2.04.07.65.17,1.26.29,1.82Z"/>
        <path class="cls-16" d="m62.24,46.64c1.04,0,1.89-.85,1.89-1.9s-.85-1.9-1.89-1.9-1.9.85-1.9,1.9.85,1.9,1.9,1.9Z"/>
        <path class="cls-16" d="m40.12,39.49c.13.68.28,1.3.44,1.87.46-.21.98-.33,1.52-.33s1.02.11,1.47.3c.16-.56.31-1.17.44-1.84.16-.79.3-1.65.41-2.56.12-.91.19-1.87.18-2.86-.01-.99-.12-2.02-.25-3.06-.13-1.04-.25-2.1-.33-3.16-.16-2.12-.3-4.24-.5-6.22-.17-1.99-.37-3.84-.53-5.43-.34-3.18-.62-5.3-.62-5.3h-.48s-.29,2.12-.64,5.29c-.17,1.59-.37,3.44-.56,5.43-.21,1.99-.35,4.1-.52,6.22-.09,1.06-.21,2.12-.34,3.16-.13,1.04-.24,2.07-.26,3.06-.01.99.05,1.95.17,2.86.1.91.24,1.77.4,2.57Z"/>
        <path class="cls-16" d="m39.85,47.79c-.81-.6-1.37-1.53-1.48-2.59-.58.15-1.19.33-1.84.55-.77.26-1.58.57-2.42.93-.84.35-1.71.78-2.56,1.28-.85.51-1.69,1.12-2.53,1.75-.84.63-1.7,1.27-2.57,1.87-1.75,1.2-3.52,2.39-5.13,3.55-1.63,1.15-3.14,2.25-4.43,3.19-2.58,1.89-4.27,3.2-4.27,3.2l.24.42s1.98-.81,4.9-2.1c1.46-.65,3.16-1.4,4.97-2.24,1.82-.82,3.73-1.75,5.64-2.67.96-.46,1.94-.88,2.9-1.29.97-.41,1.91-.83,2.78-1.31.86-.49,1.66-1.02,2.39-1.58.74-.55,1.41-1.1,2.02-1.63.52-.45.98-.89,1.39-1.31Z"/>
        <path class="cls-16" d="m63.49,55.57l-.31-8.34c-.29.11-.61.18-.94.18s-.65-.07-.94-.18l-.25,6.62c-1.08-.75-2.19-1.5-3.3-2.26-.58-.4-1.15-.82-1.72-1.23.17-.08.34-.16.5-.25.62-.35,1.18-.73,1.7-1.12.52-.39,1-.78,1.44-1.16.37-.32.7-.64.99-.94-.58-.43-.97-1.08-1.06-1.84-.41.11-.85.23-1.31.39-.55.18-1.13.4-1.72.66-.6.25-1.22.55-1.82.91-.58.35-1.16.76-1.73,1.19-.12-.08-.24-.16-.36-.23-.86-.51-1.72-.93-2.57-1.28-.84-.37-1.66-.68-2.42-.93-.67-.23-1.29-.41-1.88-.56-.12,1.05-.66,1.97-1.47,2.58.42.42.88.87,1.41,1.33.61.54,1.28,1.09,2.02,1.63.26.2.55.4.83.59-.37.26-.75.52-1.11.78-1.16.82-2.23,1.6-3.15,2.27-.24.17-.46.34-.67.5l-.25-6.58c-.41.16-.86.25-1.32.25s-.91-.1-1.32-.25l-1.18,31.73h-2.81v2.9h10.64v-2.9h-2.81l-.9-24.03c.38-.17.8-.35,1.25-.55,1.04-.46,2.25-1,3.54-1.6.79-.36,1.61-.75,2.44-1.14.65.32,1.32.63,2.01.92.97.41,1.94.84,2.9,1.29,1.73.82,3.44,1.65,5.1,2.41l-.46,12.46h-2v2.06h7.56v-2.06h-2l-.42-11.23c1.01.46,1.97.88,2.84,1.27,2.92,1.29,4.9,2.1,4.9,2.1l.24-.42s-1.69-1.31-4.27-3.2c-1.13-.82-2.43-1.77-3.83-2.76Z"/>
        <path class="cls-16" d="m42.07,47.45c1.47,0,2.67-1.19,2.67-2.67s-1.2-2.66-2.67-2.66-2.67,1.19-2.67,2.66,1.19,2.67,2.67,2.67Z"/>
      </g>
    </g>
  </g>
</svg>