<?xml version="1.0" encoding="UTF-8" standalone="no"?>
<!-- Created with Inkscape (http://www.inkscape.org/) -->

<svg
   version="1.1"
   id="svg2"
   width="400"
   height="400"
   viewBox="0 0 400 400"
   sodipodi:docname="Logo_kriszvill.ai"
   xmlns:inkscape="http://www.inkscape.org/namespaces/inkscape"
   xmlns:sodipodi="http://sodipodi.sourceforge.net/DTD/sodipodi-0.dtd"
   xmlns="http://www.w3.org/2000/svg"
   xmlns:svg="http://www.w3.org/2000/svg">
  <defs
     id="defs6">
    <clipPath
       clipPathUnits="userSpaceOnUse"
       id="clipPath32">
      <path
         d="M 0,300 H 300 V 0 H 0 Z"
         id="path30" />
    </clipPath>
  </defs>
  <sodipodi:namedview
     id="namedview4"
     pagecolor="#ffffff"
     bordercolor="#000000"
     borderopacity="0.25"
     inkscape:showpageshadow="2"
     inkscape:pageopacity="0.0"
     inkscape:pagecheckerboard="0"
     inkscape:deskcolor="#d1d1d1" />
  <g
     id="g8"
     inkscape:groupmode="layer"
     inkscape:label="Logo_kriszvill"
     transform="matrix(1.3333333,0,0,-1.3333333,0,400)">
    <path
       d="m 143.961,171.651 h -4.75 v 4.75 h 4.75 z"
       style="fill:#fff;fill-opacity:1;fill-rule:nonzero;stroke:none"
       id="path10" />
    <path
       d="m 152.273,171.651 h -4.75 v 4.75 h 4.75 z"
       style="fill:#fff;fill-opacity:1;fill-rule:nonzero;stroke:none"
       id="path12" />
    <path
       d="m 143.813,164.378 h -4.75 v 4.75 h 4.75 z"
       style="fill:#fff;fill-opacity:1;fill-rule:nonzero;stroke:none"
       id="path14" />
    <path
       d="m 152.125,164.378 h -4.75 v 4.75 h 4.75 z"
       style="fill:#fff;fill-opacity:1;fill-rule:nonzero;stroke:none"
       id="path16" />
    <g
       aria-label="KRISZVILL"
       transform="matrix(1,0,0,-1,89.9336,87.9375)"
       id="text20"
       style="font-size:22.5611px;font-family:Kiona;-inkscape-font-specification:Kiona-Regular;fill:#fff">
      <path
         d="m 2.2142486,-16.44713 h 2.2252647 v 6.9511983 L 11.820342,-16.44713 h 2.864202 L 6.521568,-8.7798812 15.268401,0 H 12.338102 L 4.4395133,-7.9206206 V 0 H 2.2142486 Z"
         id="path54" />
      <path
         d="m 24.655845,-7.7113135 q 0.716051,0.2423556 1.388037,1.0355193 0.683002,0.7931636 1.366004,2.1812001 L 29.668199,0 h -2.390507 l -2.104087,-4.2191901 q -0.815196,-1.6524243 -1.586328,-2.1922162 -0.760115,-0.539792 -2.082054,-0.539792 H 19.081667 V 0 h -2.225265 v -16.44713 h 5.02337 q 2.820138,0 4.208174,1.178729 1.388037,1.17873 1.388037,3.558221 0,1.553279 -0.727067,2.5777816 -0.716051,1.0245031 -2.093071,1.4210849 z m -5.574178,-6.9071335 v 5.8385658 h 2.798105 q 1.60836,0 2.423556,-0.7380829 0.826212,-0.7490989 0.826212,-2.1922159 0,-1.443118 -0.826212,-2.170184 -0.815196,-0.738083 -2.423556,-0.738083 z"
         id="path56" />
      <path
         d="m 30.799162,-16.44713 h 2.225265 V 0 h -2.225265 z"
         id="path58" />
      <path
         d="m 46.321463,-15.907338 v 2.170184 q -1.266859,-0.605889 -2.390507,-0.903325 -1.123649,-0.297437 -2.170184,-0.297437 -1.817667,0 -2.809121,0.705035 -0.980439,0.705034 -0.980439,2.004941 0,1.0906 0.649954,1.652424 0.660969,0.550808 2.489652,0.8923095 l 1.343972,0.2754041 q 2.489653,0.4736949 3.668382,1.6744566 1.189746,1.1897455 1.189746,3.194687 0,2.3905072 -1.60836,3.62431734 -1.597344,1.23381016 -4.692885,1.23381016 -1.167713,0 -2.489653,-0.26438789 -1.310923,-0.26438789 -2.720992,-0.78214751 v -2.2913617 q 1.354988,0.7601152 2.654895,1.1456808 1.299907,0.3855657 2.55575,0.3855657 1.905796,0 2.941315,-0.749099 1.035519,-0.749099 1.035519,-2.1371355 0,-1.2117778 -0.749099,-1.8947798 -0.738082,-0.6830021 -2.434571,-1.0245031 l -1.354988,-0.2643879 q -2.489653,-0.4957273 -3.602285,-1.5532789 -1.112633,-1.0575519 -1.112633,-2.9413149 0,-2.1812 1.531247,-3.437043 1.542262,-1.255842 4.241222,-1.255842 1.156697,0 2.357459,0.209307 1.200762,0.209307 2.456604,0.627921 z"
         id="path60" />
      <path
         d="m 48.64517,-16.44713 h 12.921958 v 1.696489 L 51.167871,-1.8727476 H 61.8205 V 0 H 48.391798 V -1.696489 L 58.791055,-14.574382 H 48.64517 Z"
         id="path62" />
      <path
         d="m 67.302757,0 -6.279212,-16.44713 h 2.32441 L 68.5586,-2.5998143 73.780261,-16.44713 h 2.313394 L 69.825458,0 Z"
         id="path64" />
      <path
         d="m 78.583572,-16.44713 h 2.225265 V 0 h -2.225265 z"
         id="path66" />
      <path
         d="m 84.469765,-16.44713 h 2.225264 v 14.5743824 h 8.00875 V 0 H 84.469765 Z"
         id="path68" />
      <path
         d="m 97.577759,-16.44713 h 2.225264 v 14.5743824 h 8.008747 V 0 H 97.577759 Z"
         id="path70" />
    </g>
    <g
       id="g22"
       transform="translate(87.46,176.4595)">
      <path
         d="M 0,0 58.24,14.29 115.181,-0.649"
         style="fill:none;stroke:#fff;stroke-width:1.5;stroke-linecap:butt;stroke-linejoin:miter;stroke-miterlimit:10;stroke-dasharray:none;stroke-opacity:1"
         id="path24" />
    </g>
    <g
       id="g26">
      <g
         id="g28"
         clip-path="url(#clipPath32)">
        <g
           id="g34"
           transform="translate(191.0625,170.2319)">
          <path
             d="m 0,0 c -9.876,-36.412 -37.581,-51.932 -45.914,-57.062 -8.515,5.153 -34.142,22.213 -46.903,56.852"
             style="fill:none;stroke:#4da7f7;stroke-width:3;stroke-linecap:butt;stroke-linejoin:miter;stroke-miterlimit:10;stroke-dasharray:none;stroke-opacity:1"
             id="path36" />
        </g>
        <g
           id="g38"
           transform="translate(92.1704,194.7847)">
          <path
             d="M 0,0 C -1.449,11.103 -1.059,20.491 -0.456,26.845 17.29,31.46 35.035,36.075 52.781,40.69 L 104.83,26.215 c 0.816,-7.361 1.36,-18.476 -0.748,-31.512"
             style="fill:none;stroke:#4da7f7;stroke-width:3;stroke-linecap:butt;stroke-linejoin:miter;stroke-miterlimit:10;stroke-dasharray:none;stroke-opacity:1"
             id="path40" />
        </g>
        <g
           id="g42"
           transform="translate(93.0479,189.1421)">
          <path
             d="M 0,0 C -0.348,1.924 -0.638,3.807 -0.877,5.643"
             style="fill:none;stroke:#4da7f7;stroke-width:3;stroke-linecap:butt;stroke-linejoin:miter;stroke-miterlimit:10;stroke-dasharray:none;stroke-opacity:1"
             id="path44" />
        </g>
        <g
           id="g46"
           transform="translate(196.7871,192.9097)">
          <path
             d="M 0,0 -1.253,-7.921"
             style="fill:none;stroke:#4da7f7;stroke-width:3;stroke-linecap:butt;stroke-linejoin:miter;stroke-miterlimit:10;stroke-dasharray:none;stroke-opacity:1"
             id="path48" />
        </g>
        <g
           id="g50"
           transform="translate(92.9023,189.9077)">
          <path
             d="M 0,0 1.335,-5.195"
             style="fill:#000000;fill-opacity:1;fill-rule:nonzero;stroke:#4da7f7;stroke-width:3;stroke-linecap:butt;stroke-linejoin:miter;stroke-miterlimit:10;stroke-dasharray:none;stroke-opacity:1"
             id="path52" />
        </g>
      </g>
    </g>
  </g>
</svg>
